<svg aria-hidden="true" focusable="false" data-prefix="far" data-icon="question-circle" role="img" xmlns="http://www.w3.org/2000/svg" viewBox="0 0 20 20" width="20" height="20" fill="currentColor"><path fill-rule="evenodd" clip-rule="evenodd" d="M18.1625 7.51858L11.2134 14.4677C11.1012 14.5872 10.9446 14.655 10.7807 14.655C10.6167 14.655 10.4601 14.5872 10.3479 14.4677L7.40504 11.5619C7.288 11.4458 7.22217 11.2878 7.22217 11.123C7.22217 10.9581 7.288 10.8001 7.40504 10.684L8.06038 10.0287C8.17258 9.90912 8.32922 9.84131 8.49316 9.84131C8.6571 9.84131 8.81374 9.90912 8.92593 10.0287L10.7807 11.871L16.6416 6.01006C16.882 5.77442 17.2668 5.77442 17.5072 6.01006L18.1625 6.6654C18.3902 6.90423 18.3902 7.27976 18.1625 7.51858Z" fill="#38B448"></path><path fill-rule="evenodd" clip-rule="evenodd" d="M12.607 7.51858L5.6579 14.4677C5.54571 14.5872 5.38907 14.655 5.22513 14.655C5.06118 14.655 4.90454 14.5872 4.79235 14.4677L1.8495 11.5619C1.73246 11.4458 1.66663 11.2878 1.66663 11.123C1.66663 10.9581 1.73246 10.8001 1.8495 10.684L2.50484 10.0287C2.61703 9.90912 2.77367 9.84131 2.93762 9.84131C3.10156 9.84131 3.2582 9.90912 3.37039 10.0287L5.22513 11.871L11.0861 6.01006C11.3265 5.77442 11.7112 5.77442 11.9516 6.01006L12.607 6.6654C12.8347 6.90423 12.8347 7.27976 12.607 7.51858Z" fill="#38B448"></path></svg>