<svg xmlns="http://www.w3.org/2000/svg" viewBox="0 0 438 416"><defs><style>.a{fill:#09B2C9;}</style></defs><path class="a" d="M232.16,123.77a12.49,12.49,0,0,0,12.47-12.48,12.33,12.33,0,0,0-1.9-6.55,5.07,5.07,0,0,1-3.6,1.57,4.92,4.92,0,0,1-1.14-.13,5.12,5.12,0,0,1-3.87-6.12c0-.1.12-.49.26-1a12.47,12.47,0,1,0-2.22,24.73Z"/><path class="a" d="M333.47,228.82H277.91v13h55.56a6.52,6.52,0,0,0,0-13Z"/><rect class="a" x="106.26" y="275.42" width="216.57" height="19.28"/><path class="a" d="M202.77,199c0,.16.09.33.13.5a42.06,42.06,0,0,1,1.61,11.45c0,3.64,2.42,6.85,5.62,7.47a7.09,7.09,0,0,0,8.57-6.94V164.82c0-9.15,6.89-17,15.68-17.81.56,0,1.11-.08,1.66-.08a17.36,17.36,0,0,1,17.4,17.37v93.23a7.43,7.43,0,0,0,6.38,7.58,7.08,7.08,0,0,0,7.81-7.06V214.3a45.3,45.3,0,0,1,2.56-14.92,4.78,4.78,0,0,1,.49-1.34,45.63,45.63,0,0,1,42.55-29.34h9.6V165a31,31,0,0,0-31-31H137.21a31,31,0,0,0-30.95,31v3.7h56A42.3,42.3,0,0,1,202.77,199Z"/><path class="a" d="M277.91,214.3v4.25h55.56a6.51,6.51,0,0,0,0-13H279.05A35.25,35.25,0,0,0,277.91,214.3Z"/><path class="a" d="M340,258.64a6.52,6.52,0,0,0-6.51-6.52H277.91v5.93a17.39,17.39,0,0,1-1.53,7.1h57.09A6.52,6.52,0,0,0,340,258.64Z"/><path class="a" d="M313.23,179a35.3,35.3,0,0,0-29.7,16.27h39.3V179Z"/><path class="a" d="M95.62,241.85H243.17v-13H95.62a6.52,6.52,0,0,0,0,13Z"/><path class="a" d="M95.62,265.15h149.3a18,18,0,0,1-1.75-7.62v-5.41H95.62a6.52,6.52,0,0,0,0,13Z"/><path class="a" d="M243.17,164.3a7.11,7.11,0,0,0-7.81-7.06,7.43,7.43,0,0,0-6.38,7.58v30.43h14.19Z"/><path class="a" d="M66,305A32.51,32.51,0,0,0,98,332.3H331.07A32.51,32.51,0,0,0,363.12,305Z"/><path class="a" d="M95.62,218.55H195.94a18.36,18.36,0,0,1-1.7-7.62,32,32,0,0,0-.49-5.4H95.62a6.51,6.51,0,0,0,0,13Z"/><path class="a" d="M162.29,179h-56v16.27H190.1A32,32,0,0,0,162.29,179Z"/><path class="a" d="M229,211.46a17.27,17.27,0,0,1-1.53,7.09h15.72v-13H229Z"/><path class="a" d="M265.8,82.43a5.14,5.14,0,0,0-1.23-10.2c-14,1.69-21.81,10.1-26,17.24a23.52,23.52,0,0,1,8.94,5.06A24.31,24.31,0,0,1,265.8,82.43Z"/></svg>