<svg xmlns="http://www.w3.org/2000/svg" viewBox="0 0 438 416"><defs><style>.a{fill:#09B2C9;fill-rule:evenodd;}</style></defs><path class="a" d="M244.94,145.67A48.12,48.12,0,1,1,197,198.26h-5.59a48.13,48.13,0,1,1-47.92-52.59ZM301.8,53.74A14.41,14.41,0,1,1,291.6,58a14.41,14.41,0,0,1,10.2-4.22Zm3.89,10.54a5.52,5.52,0,1,0,1.6,3.88,5.51,5.51,0,0,0-1.6-3.88Zm28.2,12.33a18.84,18.84,0,0,0-13.33,32.16v0a18.85,18.85,0,0,0,26.66-26.66h0a18.82,18.82,0,0,0-13.32-5.52Zm7,11.83h0a9.91,9.91,0,1,1-14,14h0a9.93,9.93,0,0,1,14.05-14ZM325.2,131.49V127H299.85V267a70.08,70.08,0,0,1-3.32,22.22A47.59,47.59,0,0,1,287,306a41.5,41.5,0,0,1-14.73,10.5h0a50.28,50.28,0,0,1-37.69,0A41.71,41.71,0,0,1,219.78,306a47.59,47.59,0,0,1-9.56-16.81A70.08,70.08,0,0,1,206.9,267v-2.17a12.68,12.68,0,0,0-2.63-25.08H184.18a12.68,12.68,0,0,0-9,3.73h0a12.64,12.64,0,0,0,0,17.91h0a12.77,12.77,0,0,0,6.32,3.45V267a94.42,94.42,0,0,0,4.89,30.94A72.58,72.58,0,0,0,201,323a66.67,66.67,0,0,0,23.38,16.78,75.29,75.29,0,0,0,58,0A66.67,66.67,0,0,0,305.78,323a72.65,72.65,0,0,0,14.53-25A94.64,94.64,0,0,0,325.2,267V131.49ZM316.27,267V136h-7.49V267A78.72,78.72,0,0,1,305,292,56.07,56.07,0,0,1,293.59,312a50.14,50.14,0,0,1-17.89,12.73,58.63,58.63,0,0,1-44.64,0h0A50.39,50.39,0,0,1,213.15,312,56.2,56.2,0,0,1,201.78,292,78.72,78.72,0,0,1,198,267V256.17h6.3a3.74,3.74,0,0,0,0-7.48H184.18a3.71,3.71,0,0,0-2.64,1.08v0a3.72,3.72,0,0,0,0,5.28v0a3.71,3.71,0,0,0,2.64,1.08h6.3V267a85.66,85.66,0,0,0,4.4,28A63.62,63.62,0,0,0,207.6,317a57.82,57.82,0,0,0,20.27,14.56,66.66,66.66,0,0,0,51,0A57.77,57.77,0,0,0,299.15,317,63.62,63.62,0,0,0,311.87,295a85.89,85.89,0,0,0,4.4-28ZM244.94,164.06a29.74,29.74,0,1,0,21,8.71,29.63,29.63,0,0,0-21-8.71Zm14.71,15a20.81,20.81,0,1,0,6.09,14.71,20.75,20.75,0,0,0-6.09-14.71Zm-116.14-15a29.74,29.74,0,1,0,21,8.71,29.63,29.63,0,0,0-21-8.71Zm14.71,15a20.81,20.81,0,1,0,6.09,14.71,20.76,20.76,0,0,0-6.09-14.71Zm114.43-13a39.07,39.07,0,0,0-27.71-11.48H143.51a39.19,39.19,0,1,0,39.2,39.19v-4.46h23v4.46a39.19,39.19,0,1,0,66.9-27.71Z"/></svg>