<svg xmlns="http://www.w3.org/2000/svg" viewBox="0 0 438 416"><defs><style>.a{fill:#09B2C9;}</style></defs><path class="a" d="M229.71,263.4s-59.18,4.84-92.18-17.82-70.27-58-96.55-52.71c0,0,60.2,53.32,47.49,67.58-1.59,1.79-10.08,4.68-15.3,6.25a12.27,12.27,0,0,0-6.52,4.77l-1.09,1.6a12.2,12.2,0,0,0-.2,13.52h0a12.19,12.19,0,0,0,11.94,5.46C105.53,288.11,202.73,274,229.71,263.4Z"/><path class="a" d="M402,202.88c-2.54-4.31-8.1-9-15.38-13.17l-30,5.58a2.16,2.16,0,0,1-2.52-1.73h0a3.86,3.86,0,0,1,1.58-3.86c6.79-4.7,15.72-6.67,15.72-6.67-6.23-2-12.88-3.84-19.56-3.85-22.86-.05-75.55,21-75.55,21l8.28,11.09-13-9.46C248.43,185.44,171.43,118,166.3,119c-2.59.48,21.47,30.75,46,61l-11.92,5.56A7.16,7.16,0,0,0,196.9,195h0a7.18,7.18,0,0,0,9.53,3.47l15.18-7.08c21,25.75,39.79,48.61,39.43,49.18,0,0-18.08-16.67-28.32-28.44-52.17,14.48-89.93,24.67-89.93,24.67,16.37,9.72,39.33,15,56.6,17.79a141,141,0,0,0,41.73.44s53.38-9,64-11.61C375.87,226,409.08,214.93,402,202.88ZM293.4,226.64l-.9-5.08,3.86-1,.9,5.08Zm7-1.8-.9-5.08,3.87-1,.9,5.08Zm7.05-1.81-.9-5.08,3.86-1,.91,5.08Zm7.05-1.8-.9-5.08,3.86-1,.9,5.08Zm7-1.81-.9-5.08,3.87-1,.9,5.09Zm7.05-1.8-.9-5.08,3.87-1,.9,5.08Zm7.05-1.8-.9-5.09,3.86-1,.9,5.09Zm7-1.81-.9-5.08,3.87-1,.9,5.08Zm7-1.8-.9-5.08,3.87-1,.9,5.08Zm7.05-1.81-.9-5.08,3.86-1,.9,5.08Zm7-1.8-.9-5.08,3.87-1,.9,5.08Zm7.05-1.81-.9-5.08,3.87-1,.9,5.09Z"/></svg>