<svg xmlns="http://www.w3.org/2000/svg" viewBox="0 0 438 416"><defs><style>.a{fill:#09B2C9;}</style></defs><path class="a" d="M351.7,110.9H114.36C111,107.22,102.77,94.15,98,86.18a2.85,2.85,0,0,0-2.45-1.4H74.83a2.86,2.86,0,0,0,0,5.71H94c3,5,12.08,19.88,16.49,24.57l10,93.13a25,25,0,0,0,9.61,20,2.8,2.8,0,0,0,.6,1.11l25.16,29.11a2.9,2.9,0,0,0,2.16,1H296.26a2.42,2.42,0,0,0,.47-.05h34.18a6.53,6.53,0,0,1,0,13h-3.44a3.28,3.28,0,0,0-.46,0h-1c-.38,0-.77,0-1.16,0s-.78,0-1.17,0H172.18a20.14,20.14,0,1,0,7.37,5.69H310.79a20.13,20.13,0,1,0,26.11-1.71,12.29,12.29,0,0,0,5.86-10.53,12,12,0,0,0-11.85-12.21H296.26a3.38,3.38,0,0,0-.47,0H159.3l-18.63-21.55c.41,0,.82,0,1.23,0H319.68c11.76,0,21.33-10.71,21.43-23.92l13.41-94.08a2.83,2.83,0,0,0-2.82-3.25ZM178.34,290.73a14.44,14.44,0,1,1-14.43-14.43A14.45,14.45,0,0,1,178.34,290.73Zm146.51,16.18a14.42,14.42,0,0,1-.73-28.83h1.45a14.42,14.42,0,0,1-.72,28.83ZM335.41,208c0,10.17-7.06,18.43-15.73,18.43H141.9c-8.69,0-15.75-8.26-15.75-18.43a1.37,1.37,0,0,0,0-.29l-9.76-91.14h232l-12.95,91A2.58,2.58,0,0,0,335.41,208Z"/><path class="a" d="M300.27,203a2.86,2.86,0,0,1-2.82,2.41,3.75,3.75,0,0,1-.45,0,2.85,2.85,0,0,1-2.35-3.26l2.45-15.25H235.3v13.37a2.85,2.85,0,1,1-5.7,0V186.89H156.54l2.47,15.4a2.82,2.82,0,0,1-2.37,3.25,1.33,1.33,0,0,1-.45.05,2.84,2.84,0,0,1-2.8-2.39l-2.63-16.31H134.2l1.86,11.41c0,9.8,7.33,17.75,16.38,17.75H309.06c9.06,0,16.39-8,16.39-17.75l1.77-11.41H302.87Z"/><path class="a" d="M295,196.39a5.13,5.13,0,0,0,.52,0c1.61,0,3-.87,3.28-2.06l3-13.78,7.46-34.07c.29-1.33-.93-2.58-2.74-2.79s-3.51.68-3.79,2l-7.62,34.85-2.85,13C292,194.91,293.22,196.18,295,196.39Z"/><path class="a" d="M156.19,205.59a1.33,1.33,0,0,0,.45-.05,2.82,2.82,0,0,0,2.37-3.25l-2.47-15.4L150,146.24a2.85,2.85,0,0,0-5.62.91l6.39,39.74,2.63,16.31A2.84,2.84,0,0,0,156.19,205.59Z"/><path class="a" d="M232.44,203.11a2.85,2.85,0,0,0,2.86-2.85v-56a2.85,2.85,0,1,0-5.7,0v56A2.85,2.85,0,0,0,232.44,203.11Z"/></svg>