<svg xmlns="http://www.w3.org/2000/svg" viewBox="0 0 438 416"><defs><style>.a{fill:#09B2C9;}</style></defs><path class="a" d="M331.75,237.33A5.6,5.6,0,0,1,326,231.9c0-74.15-63-134.48-140.5-134.48a5.44,5.44,0,1,1,0-10.86A157.27,157.27,0,0,1,244.72,98,151.9,151.9,0,0,1,293,129.13a144.33,144.33,0,0,1,32.54,46.19A139.08,139.08,0,0,1,337.5,231.9,5.59,5.59,0,0,1,331.75,237.33Z"/><path class="a" d="M295.12,221.51a5.59,5.59,0,0,1-5.74-5.43c0-46.17-39.24-83.74-87.48-83.74a5.44,5.44,0,1,1,0-10.86,102.35,102.35,0,0,1,38.57,7.44,98.85,98.85,0,0,1,31.46,20.27,94.23,94.23,0,0,1,21.18,30.07,90.58,90.58,0,0,1,7.76,36.82A5.59,5.59,0,0,1,295.12,221.51Z"/><path class="a" d="M260.22,213.26a5.59,5.59,0,0,1-5.75-5.43c0-23.3-19.79-42.26-44.1-42.26a5.44,5.44,0,1,1,0-10.86,56.56,56.56,0,0,1,39.35,15.58A51.59,51.59,0,0,1,266,207.83,5.6,5.6,0,0,1,260.22,213.26Z"/><path class="a" d="M107.23,153.81s0-36.83,31.23-49.41a10.54,10.54,0,0,1,1.46-.5,17,17,0,0,1,5.59-.58c3,.19,9,.66,11.59,1.59l.92.3c1.42.46,5.92,2.53,8.64,11.07l13.05,37.53S183.55,164,177,169.4c-.21.18-.41.36-.6.55l-12.2,12.2a11.12,11.12,0,0,0-3,5.27,6.68,6.68,0,0,0,.61,5.19,12.09,12.09,0,0,1,.83,1.55c2.77,6.25,20.16,41.88,67.42,67.1,0,0,5.13,3,10.95-2.33l9.53-9.31a10.56,10.56,0,0,0,1.13-1.28A14.38,14.38,0,0,1,269,243.55l39.62,13.51.91.3A13.92,13.92,0,0,1,319,268.53c.09.63.18,1.26.28,1.89.42,2.6,1.33,9.65-.17,14.15,0,0-9.56,30.3-51.51,31.46,0,0-27.44.23-56.82-19.89-.79-.55-1.61-1.07-2.43-1.57-8.53-5.15-60.05-37.9-87.36-92.51C121,202.06,107.23,177.35,107.23,153.81Z"/></svg>