<svg xmlns="http://www.w3.org/2000/svg" viewBox="0 0 438 416"><defs><style>.a{fill:#09B2C9;}</style></defs><path class="a" d="M311.15,286.29V140.76H80.84V286.29h87.38v24.64H128.54v9.67H263.45v-9.67H223.77V286.29Zm-97,24.64H177.89V286.29H214.1Zm-45.88-34.31H90.51V150.43h211V276.62H168.22Z"/><rect class="a" x="96.51" y="156.37" width="198.97" height="114.31"/><path class="a" d="M333.94,124.34a14.78,14.78,0,0,0-10.48,4.34l10.48,10.48,10.49-10.48A14.81,14.81,0,0,0,333.94,124.34Z"/><path class="a" d="M371.76,101.34l6.53-6.53a62.65,62.65,0,0,0-88.7,0l6.53,6.53a53.43,53.43,0,0,1,75.64,0Z"/><path class="a" d="M349.21,123.89l6.53-6.53a30.81,30.81,0,0,0-43.6,0l6.53,6.53a21.58,21.58,0,0,1,30.54,0Z"/><path class="a" d="M360.1,113l6.53-6.54a46.17,46.17,0,0,0-65.37,0l6.53,6.54a36.93,36.93,0,0,1,52.31,0Z"/></svg>