<svg xmlns="http://www.w3.org/2000/svg" viewBox="0 0 438 416"><defs><style>.a,.b{fill:#09B2C9;}.b{font-size:57.93px;font-family:Montserrat-Bold, Montserrat;font-weight:700;}</style></defs><path class="a" d="M333.79,337.7H118.69a12.5,12.5,0,0,1-12.48-12.48V163.89a3.59,3.59,0,0,1,3.59-3.59h224a12.5,12.5,0,0,1,12.48,12.48v54.67a3.59,3.59,0,1,1-7.18,0V172.78a5.31,5.31,0,0,0-5.3-5.3H113.39V325.22a5.31,5.31,0,0,0,5.3,5.3h215.1a5.31,5.31,0,0,0,5.3-5.3V270.56a3.59,3.59,0,1,1,7.18,0v54.66A12.5,12.5,0,0,1,333.79,337.7Z"/><path class="a" d="M176.15,167.48H109.8a3.58,3.58,0,0,1-3.59-3.59V124.6a7,7,0,0,1,7-7h45.18a3.59,3.59,0,0,1,0,7.18h-45V160.3h62.76a3.59,3.59,0,1,1,0,7.18Z"/><path class="a" d="M300.46,167.48H234.11a3.59,3.59,0,1,1,0-7.18h62.76V124.82h-45a3.59,3.59,0,0,1,0-7.18h45.18a7,7,0,0,1,7,7v39.29A3.59,3.59,0,0,1,300.46,167.48Zm-3.38-42.66Z"/><path class="a" d="M234.11,167.48a3.59,3.59,0,0,1-2.23-6.4,46.39,46.39,0,0,0,4-3.57,42.63,42.63,0,0,0,12.74-30.75,45.75,45.75,0,0,0-.29-5.13,43.5,43.5,0,1,0-74,35.88,47.93,47.93,0,0,0,4,3.57,3.59,3.59,0,0,1-4.45,5.63,52.73,52.73,0,0,1-4.62-4.12,50.65,50.65,0,0,1,0-71.66,50.69,50.69,0,0,1,86.17,29.9,52.9,52.9,0,0,1,.33,5.93A49.67,49.67,0,0,1,241,162.59a54.21,54.21,0,0,1-4.62,4.12A3.59,3.59,0,0,1,234.11,167.48Z"/><path class="a" d="M360.9,274.15H300a3.59,3.59,0,0,1-3.59-3.59V227.45a3.59,3.59,0,0,1,3.59-3.59H360.9a3.59,3.59,0,0,1,3.59,3.59v43.11A3.59,3.59,0,0,1,360.9,274.15ZM303.6,267h53.71V231H303.6Z"/><path class="a" d="M323.35,259.6A10.6,10.6,0,1,1,333.94,249,10.61,10.61,0,0,1,323.35,259.6Zm0-14a3.41,3.41,0,1,0,3.41,3.41A3.42,3.42,0,0,0,323.35,245.59Z"/><text class="b" transform="translate(187.52 146.12)">P</text><rect class="a" x="182.01" y="115.98" width="49.29" height="7.33"/></svg>