<svg xmlns="http://www.w3.org/2000/svg" viewBox="0 0 438 416"><defs><style>.a{font-size:117.42px;font-family:Montserrat-Bold, Montserrat;font-weight:700;}.a,.b{fill:#09B2C9;}</style></defs><text class="a" transform="translate(188.01 170.64)">P</text><path class="b" d="M286.62,294.24a5.5,5.5,0,0,1-11,.35,13,13,0,0,0-10-12.58H198.51a5.36,5.36,0,0,1-1.67-.26c-.35-.09-.82-.22-1.38-.41l-.15,0c-11.29-3.61-31.72-10.62-51-17.26-21-7.19-40.66-14-44.78-15.1-6.21-1.73-10.19,6.68-10.2,6.71h0l-.15.28c-2.87,5.17.87,10.34,2.24,12L222,340.5l.29.15a17.65,17.65,0,0,0,17,.19,5.29,5.29,0,0,1,1.35-.66l96.93-32a5.44,5.44,0,0,1,1.95-.35h21.62a5.52,5.52,0,0,1,0,11H340.31l-95.9,31.64c-3,1.56-15.07,6.94-27.68-.34l-.12-.07-131.38-73a5.62,5.62,0,0,1-1.27-1h0s-11.72-11.88-4.57-25.24h0s7.88-16.74,23.05-12.53c4.87,1.36,24.51,8.1,45.41,15.28,11.45,3.93,23.27,8,33,11.3a28.78,28.78,0,0,1-.53-5.94c.24-20,20-22.31,20.11-22.32a5.63,5.63,0,0,1,.71,0v0h50.51c6.67-3,41.13-18.34,59.68-21.65l.21,0c8.28-1.46,18.56-1.92,27.9-1.95s17.56.37,21.9.63a5.5,5.5,0,1,1-.64,11c-4.34-.26-12.44-.65-21.26-.63s-18.26.46-26,1.82l-.17,0c-18.17,3.24-53.47,19.15-57.75,21.1a5.47,5.47,0,0,1-2.72.72H201.48c-1.91.35-10,2.37-10.13,11.47a15.48,15.48,0,0,0,.79,5.31,10,10,0,0,0,2.2,3.64,10.94,10.94,0,0,0,4.08,2.7l.21.07.31.11.14,0H266.2a5,5,0,0,1,1,.1C267.27,271.09,285.93,274.47,286.62,294.24Z"/><path class="b" d="M362.39,199.71H314.32a1.31,1.31,0,0,0-.93.37h0a1.32,1.32,0,0,0-.39.93V330.81a1.32,1.32,0,0,0,.39.93l.13.13a1.26,1.26,0,0,0,.8.26h48.07a1.29,1.29,0,0,0,.93-.37l0,0h0a1.31,1.31,0,0,0,.38-.93V201a1.31,1.31,0,0,0-.38-.93l0,0h0a1.29,1.29,0,0,0-.93-.37Zm-48.07-11h48.07a12.35,12.35,0,0,1,8.7,3.61v0h0a12.36,12.36,0,0,1,3.62,8.71V330.81a12.35,12.35,0,0,1-3.61,8.7h0a12.31,12.31,0,0,1-8.71,3.63H314.32a12.3,12.3,0,0,1-8.32-3.25,4.86,4.86,0,0,1-.41-.38,12.3,12.3,0,0,1-3.63-8.73V201a12.29,12.29,0,0,1,3.63-8.73h0A12.3,12.3,0,0,1,314.32,188.67Z"/><path class="b" d="M221.82,46.1A82.49,82.49,0,1,1,163.5,70.26,82.22,82.22,0,0,1,221.82,46.1Zm50.52,32a71.45,71.45,0,1,0,20.92,50.52A71.21,71.21,0,0,0,272.34,78.06Z"/><rect class="b" x="176.85" y="109.55" width="99.9" height="14.85"/></svg>