<svg xmlns="http://www.w3.org/2000/svg" viewBox="0 0 438 416"><defs><style>.a{fill:#09B2C9;}</style></defs><path class="a" d="M107.86,239.74l53.44-12-1,126.75a2.9,2.9,0,0,0,2.77,3h0a2.88,2.88,0,0,0,2.79-2.92v0l1-130.37a3,3,0,0,0-1-2.3,2.64,2.64,0,0,0-2.33-.58l-53.47,11.95V173.81l67.29-31c.14,1.59.37,3.16.64,4.71,0,.1,0,.21.06.32,4.91,26.45,29.06,46.67,57.8,46.67,30.63,0,56-23,58.53-52l67.26,31.08v59L301.55,219.1a2.67,2.67,0,0,0-2.33.57,3.06,3.06,0,0,0-1,2.3l.61,132.59v0a2.89,2.89,0,0,0,2.78,2.93h0a2.86,2.86,0,0,0,2.76-3l-.6-129,60.08,13.54a2.72,2.72,0,0,0,2.33-.58,3,3,0,0,0,1-2.29V171.71a3,3,0,0,0-1.67-2.68l-72.61-33.54a2.68,2.68,0,0,0-2.65.23,3,3,0,0,0-1.25,2.45v.27a48.27,48.27,0,0,1-.42,5.8h-50V124.33c13.74-1.47,24.51-13.76,24.51-28.63,0-15.87-12.25-28.78-27.29-28.78S208.57,79.83,208.57,95.7a2.78,2.78,0,1,0,5.56,0c0-12.64,9.75-22.93,21.72-22.93s21.73,10.29,21.73,22.93-9.75,22.91-21.73,22.91a2.85,2.85,0,0,0-2.78,2.93v22.7h-50a46.3,46.3,0,0,1-.43-5.8,3,3,0,0,0-1.26-2.43,2.69,2.69,0,0,0-2.63-.22l-72.62,33.42a2.92,2.92,0,0,0-1.66,2.68v65a3,3,0,0,0,1,2.27A2.6,2.6,0,0,0,107.86,239.74ZM287.45,150.1c-5.75,22.1-26.78,38.59-51.6,38.59S190,172.2,184.25,150.1Z"/></svg>