<svg xmlns="http://www.w3.org/2000/svg" viewBox="0 0 438 416"><defs><style>.a{fill:#09B2C9;}</style></defs><path class="a" d="M230.39,100.13A113.41,113.41,0,1,0,343.8,213.54,113.41,113.41,0,0,0,230.39,100.13Zm0,12.17a101.22,101.22,0,0,1,29.66,4.42c-23.2,4.72-37.59,13.75-45.19,19.94a24,24,0,0,0-24.17-5.49,73.34,73.34,0,0,1-2.36-9.71A100.7,100.7,0,0,1,230.39,112.3Zm-90.32,147a101.19,101.19,0,0,1,5.58-101.07A157.26,157.26,0,0,1,174,155a24.33,24.33,0,0,0,6.64,16C169.14,184.25,143.15,218.24,140.07,259.25Zm43.08-104.94a15.07,15.07,0,1,1,15.07,15.21A15.16,15.16,0,0,1,183.15,154.31Zm73.49,157C230.89,267.92,209.06,196,203.81,178A24.35,24.35,0,0,0,222,158.71c18,4.23,46.12,12.62,74.62,28.16,16.32,8.88,27.42,18.81,35,28A101.24,101.24,0,0,1,256.64,311.31Z"/></svg>