<svg xmlns="http://www.w3.org/2000/svg" viewBox="0 0 438 416"><defs><style>.a{fill:#09B2C9;}</style></defs><path class="a" d="M282.36,140h8.2L308.42,315.9h-5.21l-.27,0a2.34,2.34,0,0,0,.27,4.67H311a2.35,2.35,0,0,0,1.75-.77,2.31,2.31,0,0,0,.58-1.82L295,137.42a2.35,2.35,0,0,0-2.34-2.12H282.36a2.36,2.36,0,1,0,0,4.71Z"/><path class="a" d="M116.05,320.6h178.5a2.3,2.3,0,0,0,1.74-.77,2.33,2.33,0,0,0,.6-1.82L278.56,137.42a2.32,2.32,0,0,0-.48-1.22,52.35,52.35,0,0,0-52-46.48c-1.32,0-2.62.06-3.91.15A52.69,52.69,0,0,0,205.3,87.1,52.34,52.34,0,0,0,153,137.66c0,.26,0,.53,0,.78V155.8a2.36,2.36,0,1,0,4.71,0V138.49c0-.29,0-.56,0-.83A47.5,47.5,0,0,1,210.43,92.1a52.38,52.38,0,0,0-36.25,43.2H161.63a2.36,2.36,0,0,0,0,4.71H245.9a2.36,2.36,0,1,0,0-4.71H179a48,48,0,0,1,42.47-40.65,47.94,47.94,0,0,1,31.46,43c0,.26,0,.53,0,.78V155.8a2.36,2.36,0,1,0,4.71,0V138.41c0-.26,0-.51,0-.75a52.4,52.4,0,0,0-24.77-42.75A48,48,0,0,1,273.2,135.3h-8.57a2.36,2.36,0,1,0,0,4.71h9.47L291.94,315.9H118.63L134.93,140h13.55a2.36,2.36,0,1,0,0-4.71H132.79a2.34,2.34,0,0,0-2.35,2.12L113.71,318a2.27,2.27,0,0,0,.6,1.79A2.31,2.31,0,0,0,116.05,320.6Z"/><polygon class="a" points="127.74 307.45 282.86 307.45 280.48 284 129.91 284 127.74 307.45"/></svg>