<svg xmlns="http://www.w3.org/2000/svg" viewBox="0 0 438 416"><defs><style>.a,.b{fill:#09B2C9;}.b{font-size:82.38px;font-family:Montserrat-Bold, Montserrat;font-weight:700;}</style></defs><path class="a" d="M81.5,273.76v94.77a5.92,5.92,0,0,0,5.92,5.92h47.39a5.92,5.92,0,0,0,5.92-5.92v-5.92h16.63l58.18,23.27a6,6,0,0,0,2.2.42A5.88,5.88,0,0,0,221.4,385l96.15-75.78a22.94,22.94,0,0,0,2.61-34.7,23.2,23.2,0,0,0-29.05-2.77L241.4,310.35a21.27,21.27,0,0,0-15.72-17.41l-47.85-13.05a5.87,5.87,0,0,0-1.56-.21H140.73v-5.92a5.93,5.93,0,0,0-5.92-5.93H87.42A5.93,5.93,0,0,0,81.5,273.76Zm59.23,17.77h34.75l47.09,12.84a10.08,10.08,0,0,1,6.7,13.46,10.18,10.18,0,0,1-12,6l-39.76-8.46L175,326.94l39.56,8.41a21.72,21.72,0,0,0,5.27.65A22,22,0,0,0,233,331.56l.15.18,64.77-50.3a11.1,11.1,0,0,1,12.43,18.39l-93.61,73.78L160.7,351.18a5.89,5.89,0,0,0-2.2-.42H140.73ZM93.35,279.68h35.54v82.93H93.35Z"/><rect class="a" x="105.19" y="291.53" width="11.85" height="11.85"/><path class="a" d="M365.82,143.44V48.67a5.93,5.93,0,0,0-5.92-5.93H312.51a5.93,5.93,0,0,0-5.92,5.93v5.92H290L231.78,31.32a5.93,5.93,0,0,0-5.86.85L129.77,108a22.86,22.86,0,0,0,13.51,41.32,23.87,23.87,0,0,0,12.93-3.85l49.71-38.58a21.26,21.26,0,0,0,15.72,17.42l47.85,13a5.87,5.87,0,0,0,1.56.21h35.54v5.92a5.93,5.93,0,0,0,5.92,5.93H359.9A5.93,5.93,0,0,0,365.82,143.44Zm-59.23-17.77H271.84l-47.09-12.84a10.08,10.08,0,0,1-6.7-13.46,10.18,10.18,0,0,1,12-6l39.77,8.46,2.46-11.59-39.56-8.41a22,22,0,0,0-18.45,3.75l-.12-.15-64.77,50.31A11.1,11.1,0,0,1,137,117.37l93.61-73.78L286.62,66a6.1,6.1,0,0,0,2.2.42h17.77ZM354,137.52H318.43V54.59H354Z"/><rect class="a" x="330.28" y="113.83" width="11.85" height="11.85"/><path class="a" d="M223.66,143.44a65.16,65.16,0,1,0,65.16,65.16A65.23,65.23,0,0,0,223.66,143.44Zm0,118.47A53.31,53.31,0,1,1,277,208.6,53.38,53.38,0,0,1,223.66,261.91Z"/><path class="a" d="M117,206.15l-7.66-7.66L101,206.86l17.78,17.77a5.9,5.9,0,0,0,8.37,0l17.77-17.77-8.37-8.37-7.66,7.66V179H117Z"/><rect class="a" x="117.04" y="155.29" width="11.85" height="11.85"/><path class="a" d="M318.43,229.84l-7.65-7.66-8.38,8.38,17.77,17.77a5.94,5.94,0,0,0,8.38,0l17.77-17.77-8.38-8.38-7.66,7.66V208.6H318.43Z"/><rect class="a" x="318.43" y="184.91" width="11.85" height="11.85"/><rect class="a" x="318.43" y="161.21" width="11.85" height="11.85"/><text class="b" transform="translate(198.1 237.49)">P</text><rect class="a" x="190.27" y="194.63" width="70.08" height="10.42"/></svg>