<svg xmlns="http://www.w3.org/2000/svg" viewBox="0 0 438 416"><defs><style>.a{fill:none;stroke:#09B2C9;stroke-miterlimit:10;stroke-width:6px;}</style></defs><path class="a" d="M227.06,330.78a2.35,2.35,0,0,1-1.7-.75L95.23,187.3a2.29,2.29,0,0,1-.18-2.87l43.38-61.52a2.3,2.3,0,0,1,1.88-1H313.82a2.3,2.3,0,0,1,1.88,1l43.38,61.52a2.31,2.31,0,0,1-.18,2.87L228.77,330A2.35,2.35,0,0,1,227.06,330.78Z"/><path class="a" d="M313.82,124.23l43.38,61.52L227.06,328.48,96.93,185.75l43.38-61.52H313.82m0-4.6H140.31a4.6,4.6,0,0,0-3.76,2L93.17,183.1a4.61,4.61,0,0,0,.36,5.75L223.66,331.58a4.61,4.61,0,0,0,6.81,0L360.6,188.85a4.61,4.61,0,0,0,.36-5.75l-43.38-61.52a4.6,4.6,0,0,0-3.76-2Z"/><polyline class="a" points="183.69 185.75 227.06 328.48 270.44 185.75"/><line class="a" x1="96.93" y1="185.75" x2="357.2" y2="185.75"/><line class="a" x1="183.69" y1="185.75" x2="140.31" y2="124.23"/><polyline class="a" points="270.44 185.75 227.06 124.23 183.69 185.75"/><line class="a" x1="313.82" y1="124.23" x2="270.44" y2="185.75"/></svg>