<?xml version="1.0" standalone="no"?>
<!DOCTYPE svg PUBLIC "-//W3C//DTD SVG 20010904//EN"
 "http://www.w3.org/TR/2001/REC-SVG-20010904/DTD/svg10.dtd">
<svg version="1.0" xmlns="http://www.w3.org/2000/svg"
 width="296.000000pt" height="109.000000pt" viewBox="0 0 296.000000 109.000000"
 preserveAspectRatio="xMidYMid meet">
<metadata>
Created by potrace 1.16, written by Peter Selinger 2001-2019
</metadata>
<g transform="translate(0.000000,109.000000) scale(0.100000,-0.100000)"
fill="#000000" stroke="none">
<path d="M595 978 c-165 -144 -251 -294 -288 -504 -5 -28 1 -24 76 52 54 53
104 92 145 113 34 17 62 29 62 27 0 -3 -24 -21 -52 -40 -72 -48 -160 -139
-202 -210 -20 -33 -36 -63 -36 -66 0 -14 186 -84 200 -75 4 3 11 26 15 52 18
120 115 348 153 361 13 4 89 -109 98 -145 3 -13 11 -23 18 -23 26 0 135 30
179 49 l47 20 -21 53 c-30 77 -75 154 -132 226 -54 68 -162 162 -187 162 -8 0
-42 -24 -75 -52z"/>
<path d="M1190 631 l0 -272 58 3 57 3 3 71 3 71 81 7 c96 8 135 23 170 64 77
92 56 237 -43 292 -40 22 -57 25 -186 28 l-143 4 0 -271z m259 154 c40 -20 53
-78 30 -129 -14 -30 -55 -46 -120 -46 l-49 0 0 95 0 95 55 0 c31 0 69 -7 84
-15z"/>
<path d="M1660 630 l0 -270 171 0 170 0 -3 53 -3 52 -112 3 -113 3 0 214 0
215 -55 0 -55 0 0 -270z"/>
<path d="M2050 630 l0 -272 138 4 c149 4 208 21 264 75 89 85 95 275 12 371
-56 66 -116 86 -276 90 l-138 4 0 -272z m246 159 c82 -21 125 -101 109 -201
-14 -80 -98 -133 -198 -126 l-42 3 -3 155 c-1 85 0 160 2 167 7 16 71 17 132
2z"/>
<path d="M2537 893 c-4 -3 -7 -26 -7 -49 l0 -43 78 -3 77 -3 3 -217 2 -218 55
0 55 0 0 220 0 220 39 0 c44 0 83 26 106 71 l16 29 -209 0 c-115 0 -212 -3
-215 -7z"/>
<path d="M2360 140 l0 -129 28 -1 c15 0 42 -1 61 -2 50 -1 71 29 71 103 0 46
-5 64 -20 79 -22 22 -69 27 -88 8 -9 -9 -12 -3 -12 30 0 35 -3 42 -20 42 -19
0 -20 -7 -20 -130z"/>
<path d="M1902 250 c-33 -14 -55 -74 -50 -137 7 -83 54 -120 136 -108 l42 6 0
65 c0 57 -2 64 -20 64 -17 0 -20 -7 -20 -50 0 -49 -1 -50 -29 -50 -52 0 -80
54 -66 123 11 48 23 57 75 57 48 0 76 22 44 34 -23 9 -86 6 -112 -4z"/>
<path d="M2188 200 c-42 -25 -46 -140 -6 -176 30 -28 95 -25 119 5 29 36 27
130 -4 159 -25 23 -79 29 -109 12z"/>
<path d="M2573 203 c-7 -2 -13 -11 -13 -19 0 -12 8 -13 35 -8 39 7 65 -7 65
-35 0 -14 -7 -17 -30 -13 -42 6 -80 -21 -80 -56 0 -38 21 -64 51 -63 13 0 41
1 62 2 l39 1 -4 85 c-2 70 -6 87 -22 99 -19 13 -78 18 -103 7z"/>
</g>
</svg>
