<svg id="Layer_2" data-name="Layer 2" xmlns="http://www.w3.org/2000/svg" viewBox="0 0 276.69 272.97"><path d="M43.13,185.66c-6.18.47-11.33,1.53-16.35,1.11-9.47-.79-16.16-6.26-19.55-15-3.49-9.06-2.64-18,4.24-25.26,9.32-9.84,19.16-19.17,28.57-28.91a11.64,11.64,0,0,0,3.28-6.51C46.26,78.43,60.86,52.45,87.88,34c26.22-17.92,55.27-22.83,85.51-13.3,40,12.59,63.61,40.42,71.47,81.64a3.73,3.73,0,0,1,.18,1c-1.18,10.69,4.62,17.72,12,24.31a221,221,0,0,1,18,18.11c8,9,8.95,20.17,3.06,29.79-5.65,9.23-16.19,13.39-27.62,10.9-1.15-.26-2.3-.54-4.09-1-.1,2.18-.25,4-.25,5.85v44.84c0,25.5-17.31,47-41.45,51.67-25,4.8-48.84-8.66-58.33-32.91-.36-.94-.86-1.82-1.64-3.43-1,2.25-1.93,3.87-2.66,5.53-10.26,23.09-34,35.75-57.73,30.74-24.47-5.22-41-25.76-41.13-51.33-.08-15.12,0-30.24,0-45.35Z" transform="translate(-5.22 -15.9)" style="fill:#231f20"/><path d="M75.7,153.5c-7.18,6.95-14.45,13.78-21.41,20.91a10.37,10.37,0,0,0-2.94,6.41c-.19,18.16-.59,36.35.14,54.48.69,17,9.56,29.77,24.77,37.17,27.68,13.45,58.43-2.85,63.69-33.4.76-4.41,2-7,7.15-4.76.1.95.19,1.92.32,2.89,2.18,16.23,10.45,28.43,25.21,35.44,30.11,14.29,63.7-7,64-40.39.12-15.17-.24-30.34.18-45.49.14-5.34-1.35-9.07-5.22-12.61-7.33-6.7-14.28-13.82-21.13-20.52,2-4.24,3.75-3.35,5.76-1.32q10.71,10.83,21.55,21.55c7.86,7.81,19.72,8,27.35.49s7.61-19.74-.38-27.74c-6.59-6.6-12.9-13.53-19.91-19.65-6-5.24-8.36-11.14-9.13-19.15-5-52-53.52-90.5-107-81.4-44.18,7.52-75,43.39-77.36,88.09-.1,1.79-1.46,3.83-2.8,5.18-9.4,9.42-19.2,18.47-28.37,28.12-5.31,5.58-6.47,12.64-3.59,20s8.38,11,15.91,11.92c6.37.73,11.71-1.72,16.18-6.23Q59,163,69.44,152.56C71.28,150.69,73.19,148.9,75.7,153.5Z" transform="translate(-5.22 -15.9)"/><path d="M75.7,153.5c-2.51-4.6-4.42-2.83-6.33-.92Q59,163.05,48.58,173.51c-4.47,4.51-9.81,7-16.18,6.23-7.53-.87-13.08-4.69-15.91-11.92s-1.72-14.44,3.59-20c9.17-9.65,19-18.7,28.37-28.12,1.34-1.35,2.7-3.39,2.8-5.18C53.61,69.82,84.43,34,128.61,26.43c53.51-9.1,102,29.42,107,81.4.77,8,3.13,13.91,9.13,19.15,7,6.12,13.32,13,19.91,19.65,8,8,8.15,20.08.38,27.74s-19.45,7.32-27.3-.51q-10.83-10.74-21.55-21.55c-2-2-3.75-2.92-5.76,1.32,6.85,6.7,13.8,13.82,21.13,20.52,3.87,3.54,5.36,7.27,5.22,12.61-.42,15.15-.06,30.32-.18,45.49-.26,33.34-33.85,54.68-64,40.39-14.76-7-23-19.21-25.21-35.44-.13-1-.22-1.94-.32-2.89-5.13-2.2-6.39.35-7.15,4.76-5.26,30.55-36,46.85-63.69,33.4C61,265.07,52.14,252.34,51.45,235.3c-.73-18.13-.33-36.32-.14-54.48a10.37,10.37,0,0,1,2.94-6.41C61.25,167.28,68.52,160.45,75.7,153.5ZM141.21,119h-28a84.43,84.43,0,0,0-9,.18c-.89.09-1.66,1.47-2.48,2.26.8.63,1.53,1.58,2.44,1.83a15.31,15.31,0,0,0,4,.17c12.66,0,25.33.2,38-.11,4.89-.12,7.17,1,6.51,6.33-.41,3.28,0,6.66-.07,10-.16,4.54,2.06,7.53,5.87,9.62,11.22,6.15,22.72-.49,22.8-13.2,0-4-.25-8,.07-12s-1.29-5.19-5.13-5.13C164.58,119.11,152.88,119,141.21,119Zm-29.78-26.8a12.21,12.21,0,0,0,2.42,2c1.51.78,3.85,2.22,4.64,1.67,3-2.1.08-3.93-1.27-5-2.87-2.22-2.3-3.94-.08-6,1-1,2-2.1,2.81-3-2.09-4-4-2.54-5.85-.34-2.11,2.5-4,3-6.44.14-.91-1-3.1-1-4.71-1.43.5,1.46.63,3.46,1.63,4.46,2.51,2.4,2.63,4.29-.09,6.49a24.07,24.07,0,0,0-2.79,3.18C106.41,99.69,107.65,92.32,111.43,92.19Zm58.66-4.26,5.43-6.19c-4.68-5.47-6,2-9.74,2-2.58.37-4-7.69-8.75-2.2a11.08,11.08,0,0,0,1.49,1.85c3.93,2.83,4.52,5.59.42,9-.73.6-.1,2.86-.1,5,1.56-.81,2.12-.93,2.41-1.27,3.07-3.65,6.05-5.62,9.68-.46.41.58,2.81-.25,5.2-.54C173.49,92,171.9,90.08,170.09,87.93Z" transform="translate(-5.22 -15.9)" style="fill:#fff"/><path d="M141.21,119c11.67,0,23.33.12,35,0,3.84-.06,5.45,1.1,5.13,5.13s-.05,8-.07,12c-.08,12.71-11.58,19.35-22.8,13.2-3.81-2.09-6-5.08-5.87-9.62.11-3.33-.34-6.71.07-10,.66-5.31-1.62-6.45-6.51-6.33-12.65.31-25.32.11-38,.11a15.31,15.31,0,0,1-4-.17c-.91-.25-1.64-1.2-2.44-1.83.82-.79,1.59-2.17,2.48-2.26a84.43,84.43,0,0,1,9-.18Zm16,4.85v14.8c0,5.48,3,7.83,9.69,7.88,6.47,0,9.68-2.52,9.77-7.9.06-3.83-.07-7.65,0-11.48.07-2.79-1.32-4.35-3.87-3.63a5.38,5.38,0,0,0-3.19,3.65c-.47,3.36-.15,6.82-.15,10.24l-2,.4c-5.8-3-.49-9.61-3.63-14Z" transform="translate(-5.22 -15.9)"/><path d="M111.43,92.19c-3.78.13-5,7.46-9.77,2.12a24.07,24.07,0,0,1,2.79-3.18c2.72-2.2,2.6-4.09.09-6.49-1-1-1.09-2.91-1.59-4.41,1.61.44,3.8.38,4.71,1.43,2.46,2.82,4.33,2.36,6.44-.14,1.86-2.2,3.76-3.61,5.85.34a40.48,40.48,0,0,1-2.81,3c-2.22,2.07-2.79,3.79.08,6,1.35,1,4.27,2.87,1.27,5-.79.55-3.13-.89-4.64-1.67A12.21,12.21,0,0,1,111.43,92.19Z" transform="translate(-5.22 -15.9)"/><path d="M170.09,87.93c1.81,2.15,3.4,4,6,7.14-2.39.29-4.79,1.12-5.2.54-3.63-5.16-6.61-3.19-9.68.46-.29.34-.85.46-2.41,1.27,0-2.12-.63-4.38.1-5,4.1-3.38,3.51-6.14-.42-9A11.08,11.08,0,0,1,157,81.49c4.79-5.49,6.17,2.57,8.75,2.2,3.7,0,5.06-7.47,9.74-2Z" transform="translate(-5.22 -15.9)"/><path d="M157.19,123.84h6.66c3.14,4.35-2.17,11,3.63,14l2-.4c0-3.42-.32-6.88.15-10.24a5.38,5.38,0,0,1,3.19-3.65c2.55-.72,3.94.84,3.87,3.63-.09,3.83,0,7.65,0,11.48-.09,5.38-3.3,7.94-9.77,7.9-6.72-.05-9.64-2.4-9.69-7.88C157.15,133.84,157.19,129,157.19,123.84Z" transform="translate(-5.22 -15.9)" style="fill:#fff"/><path d="M62.18,134.62" transform="translate(-5.22 -15.9)" style="fill:#fff"/></svg>