<?xml version="1.0" encoding="utf-8"?>
<!-- Generator: Adobe Illustrator 24.3.0, SVG Export Plug-In . SVG Version: 6.00 Build 0)  -->
<svg version="1.1" id="Layer_1" xmlns="http://www.w3.org/2000/svg" xmlns:xlink="http://www.w3.org/1999/xlink" x="0px" y="0px"
	 viewBox="0 0 784 760" style="enable-background:new 0 0 784 760;" xml:space="preserve">
<style type="text/css">
	.st0{fill:#E1E5E8;}
	.st1{fill:#E4E4E7;}
	.st2{fill:#E2E4E6;}
	.st3{fill:#E4E5E7;}
	.st4{fill:#E2E4E5;}
	.st5{fill:#E4E4E8;}
	.st6{fill:#E5E5E9;}
	.st7{fill:#A8AEB4;}
	.st8{fill:#F6F3F1;}
	.st9{fill:#E5E6E9;}
	.st10{fill:#EEEEEE;}
	.st11{fill:#F2F1F5;}
	.st12{fill:#A8B0B3;}
	.st13{fill:#F3F6F7;}
	.st14{fill:#DFE6EB;}
	.st15{fill:#E6E7E7;}
	.st16{fill:#E4E7E9;}
	.st17{fill:#9BA3A9;}
	.st18{fill:#B1B5B8;}
	.st19{fill:#D4DBE1;}
	.st20{fill:#B7BDC2;}
	.st21{fill:#AAB0B3;}
	.st22{fill:#F7F7FA;}
	.st23{fill:#F3F8FB;}
	.st24{fill:#EDEEED;}
	.st25{fill:#A0A9B2;}
	.st26{fill:#E3E4E7;}
	.st27{fill:#DEE5EA;}
	.st28{fill:#E0E5EB;}
	.st29{fill:#DEE6EA;}
	.st30{fill:#E3E4E9;}
	.st31{fill:#DFE3E6;}
	.st32{fill:#DEE4E9;}
	.st33{fill:#A2ADB1;}
	.st34{fill:#A0AAB2;}
	.st35{fill:#E1E5E5;}
	.st36{fill:#DFE6ED;}
	.st37{fill:#DDE4E6;}
	.st38{fill:#E5E3E6;}
	.st39{fill:#DDE4EB;}
	.st40{fill:#DAE5E9;}
	.st41{fill:#DDE2E6;}
	.st42{fill:#A3ACB3;}
	.st43{fill:#DEE6ED;}
	.st44{fill:#A4ADB5;}
	.st45{fill:#D8E1EA;}
	.st46{fill:#DFE8EF;}
	.st47{fill:#E7E8EA;}
	.st48{fill:#EDF3F8;}
	.st49{fill:#A3ADB5;}
	.st50{fill:#A0A9AE;}
	.st51{fill:#A2A7A9;}
	.st52{fill:#D8DEE6;}
	.st53{fill:#E3E9EE;}
	.st54{fill:#A2ADB6;}
	.st55{fill:#E4EAEB;}
	.st56{fill:#E3E7EB;}
	.st57{fill:#E1E0E2;}
	.st58{fill:#A9B0B6;}
	.st59{fill:#E4EAEF;}
	.st60{fill:#E4E9F0;}
	.st61{fill:#E4E4EA;}
	.st62{fill:#E3E5E6;}
	.st63{fill:#A2ABB2;}
	.st64{fill:#DEE4EA;}
	.st65{fill:#DCE2E9;}
	.st66{fill:#F4F4F4;}
	.st67{fill:#DFE4E4;}
	.st68{fill:#DDE4E9;}
	.st69{fill:#ABB2BA;}
	.st70{fill:#A3ACB1;}
	.st71{fill:#DEE3E9;}
	.st72{fill:#DDE0E5;}
	.st73{fill:#DFE0E4;}
	.st74{fill:#DFE6E7;}
	.st75{fill:#E3E4EA;}
	.st76{fill:#DFE6EA;}
	.st77{fill:#DDE6EA;}
	.st78{fill:#DCE3E6;}
	.st79{fill:#DAE1E5;}
	.st80{fill:#F7F6FA;}
	.st81{fill:#EAEFF2;}
	.st82{fill:#9FA8B1;}
	.st83{fill:#BFCBD1;}
	.st84{fill:#EBEFF3;}
	.st85{fill:#A7B0B8;}
	.st86{fill:#A3ABB4;}
	.st87{fill:#DFE5EB;}
	.st88{fill:#9DA4AC;}
	.st89{fill:#98A2AC;}
	.st90{fill:#A0AAB1;}
	.st91{fill:#DDE6EE;}
	.st92{fill:#DAE4E8;}
	.st93{fill:#A3ADB7;}
	.st94{fill:#D3DBE1;}
	.st95{fill:#9EA9B1;}
	.st96{fill:#DAE1EA;}
	.st97{fill:#98A4AB;}
	.st98{fill:#9FA9B0;}
	.st99{fill:#A0ACB3;}
	.st100{fill:#D2DAE3;}
	.st101{fill:#E1EAEE;}
	.st102{fill:#A0A9B0;}
	.st103{fill:#A5ADB4;}
	.st104{fill:#A3ABB2;}
	.st105{fill:#D9E3EB;}
	.st106{fill:#9EA4AC;}
	.st107{fill:#A6ACB6;}
	.st108{fill:#C1CBD6;}
	.st109{fill:#9FADB7;}
	.st110{fill:#A1AAB1;}
	.st111{fill:#A2ACB7;}
	.st112{fill:#F8FBFC;}
	.st113{fill:#E7EDEE;}
	.st114{fill:#F8FBFA;}
	.st115{fill:#F7FBFC;}
	.st116{fill:#FEFEFE;}
	.st117{fill:#E3EAF2;}
	.st118{fill:#A3ACB4;}
	.st119{fill:#F1F6F8;}
	.st120{fill:#F0F8F9;}
	.st121{fill:#F3F9FB;}
	.st122{fill:#E3EAF0;}
	.st123{fill:#F7FBFB;}
	.st124{fill:#E7EDF4;}
	.st125{fill:#F8FCFC;}
	.st126{fill:#BFC8CD;}
	.st127{fill:#B9C3CB;}
	.st128{fill:#A5AEB5;}
	.st129{fill:#9BA5AC;}
	.st130{fill:#ECF4F5;}
	.st131{fill:#96A0A6;}
	.st132{fill:#FEFEFC;}
	.st133{fill:#EBECF2;}
	.st134{fill:#FCFBFB;}
	.st135{fill:#FAFDFD;}
	.st136{fill:#B2B6B9;}
	.st137{fill:#A1A8AB;}
	.st138{fill:#F5F8FA;}
	.st139{fill:#F6F9FB;}
	.st140{fill:#E7ECF2;}
	.st141{fill:#FCFDFD;}
	.st142{fill:#FEFEFB;}
	.st143{fill:#FDFCFC;}
	.st144{fill:#FBFDFB;}
	.st145{fill:#FBFAFA;}
	.st146{fill:#F8FAFC;}
	.st147{fill:#F4F8FB;}
	.st148{fill:#F8F9FA;}
	.st149{fill:#ECECEC;}
	.st150{fill:#F9FAFB;}
	.st151{fill:#F8F8F8;}
	.st152{fill:#FAF9F9;}
	.st153{fill:#F8FAF6;}
	.st154{fill:#EAEDF0;}
	.st155{fill:#E5E7EA;}
	.st156{fill:#F9F9F9;}
	.st157{fill:#ACB0B4;}
	.st158{fill:#ACAFB4;}
	.st159{fill:#B3B5B9;}
</style>
<g>
	<path class="st0" d="M701.3,214.8c12,5.9,13.1,18.7,16.9,29.2c2.6,7,4.9,14.2,8.1,20.9c4.7,6.9,5.3,14.7,4.9,22.6
		c-0.9,29.3,0.2,58.7,1.9,87.9c1.8,29.9,4.9,59.8-5.9,88.9c-2,5.3-0.7,10.5,2.6,15.1c-1.1,12.7-10.7,22.8-10.7,35.8
		c-0.4,5.8-2.4,10.7-7.1,14.3c-11.5,13-13.4,32.4-28.5,43c-4.3,2.5-7.8,0.4-11.3-2c-1.6-1.7-2.6-3.8-3.4-6.1c-0.8-3.6-3-6.6-4.9-9.7
		c-0.6-1.4-0.9-2.9-0.9-4.4c-0.1-2.6,0.7-5.6-3-6.5c-7.5,1-15.2,4.5-22.2-1.3c-4.6-4.8-9.2-9.5-11.3-16.1
		c-0.8-16.5-8.2-30.2-18-42.9c-1.3-4.9-2.6-9.8-1.9-14.9c1.1-4.2,3.4-7.7,7.3-9.5c8.8-4.3,17.9-8.6,12.7-20.8
		c-4.9-11.6-5.3-28.2-25-25.9c-1.6,0.2-3.2-1.2-4.7-2.2c-3.4-3-6.8-6-9.9-9.3c-2-2.3-3.3-4.9-4.1-7.9c-4.4-29.3,4.1-58.3,2.4-87.5
		c0.1-8.9,0.2-17.8-0.8-26.7c-0.6-5.3-0.3-11.5,7.1-12.1c8-0.7,7.5,5.5,7.9,10.9c1.3,17.6,0.1,35.1,0.1,52.7c0.7,2.4,4.2-0.2,2,0.6
		c-0.8,0.3-1.2-0.1-1.3-1.2c-2.2-17,1.4-34.1-0.5-51.2c-0.8-6.8-0.2-13.8-9.7-13.5c-14,0.5-18-9.1-21.2-19.9
		c-1-5.8-1.3-11.6,1.1-17.2c1.5-2.5,3.4-3.9,6.4-2.6c4.3,3.7,7.9,9.4,15,5.7c4.6-3.4,13.2,2.4,15.2-5.6c1.7-6.8-2.3-12.4-6.6-17.7
		c-8.5-10.4-21-15.4-31.2-23.4c-7.4-5.8-16.5-9.4-21.7-18c-2.6-4.3-5.4-10.6-12.1-8c-6,2.3-2.6,8.2-2.9,12.6c-0.1,1.8-0.6,3.5-1.6,5
		c-6.6,3.8-12.4,0.5-15.2-4.5c-10-18.1-27.3-26.9-44.1-36.3c-10.7-6-19.9-12.5-20-26.5c0-4.7-2.4-9.1-6.6-12
		c-15.6-7.8-30.4-17.7-49.1-16.8c-8,0.4-14,2-13.8,11.6c0.1,1.6-0.1,3.1-0.4,4.7c-0.7,2.3-2,4.2-3.6,6c-1.6,1.7-3.4,3-5.4,4.1
		c-4.7,2-9.5,4-12.8,8.2c-5.7,5.6-7.6,12.3-5.8,20.1c-0.2,7.3-3.2,13.3-9.1,17.7c-10.6,3.8-21.4,7.1-32.2,10.6
		c-1.3,0.2-2.8-0.8-4.1,0c-1,0.6-0.6,1.6,0.7,2.3c0.1,1.4-0.1,2.7-0.8,3.9c-4.6,5.5-11.2,7.7-17.4,10.5
		c-11.8,2.8-20.3,10.6-28.2,19.2c-1.7,0.1-3.3-0.2-4.8-1c-2.2-3.1-1.5-6.4-1.1-9.8c0.8-11.5,10.7-17.6,18.3-28.8
		c-13.3-0.5-18.9,6.3-23.9,13.9c-6.8,10.2-9.6,22.7-17.9,32.1c-10.7,5.7-24.2,5.7-32.6,16.1c-11.6,14.3-10.6,29.7-4.9,47.2
		c12.7-11,2.7-27.7,12.4-38c5.2-3,10.4-6.2,15.5,0.2c2.5,24-5.5,46.8-10,69.6c-6,30.2-3.5,60-2.6,89.9c0.3,8.6,1.9,17.5,2.2,26.3
		c7.5,17.1,3.8,34.8,2.6,52.3c0.4,7.2-2.1,13.7-4.3,20.4c-2.3,5.4-5,10.7-7.9,15.9c-6.9,10-13.7,20.1-20.2,30.4
		c-0.8,1.4-1.8,2.7-2.8,3.9c-4.2,4.7-8.7,9.2-13.3,13.6c-1.7,1.6-3.6,2.9-5.6,3.9c-3.5,1.4-5.7,3.6-5,7.7c-0.1,2.5-1,4.7-2.9,6.4
		c-7.3,4.4-14.7,6.3-22.1,0.2c-11.7-13.4-19.7-28.8-24.8-45.9c-4.6-15.4-20.1-19.4-31.2-27.9c-2.4-4.8-4.8-9.6-7.1-14.4
		c-10-19.6-16-40.3-16-62.4c-3.8-31.6-6.2-63.2-0.6-94.9c1.1-6.3,0.5-13.1,6-17.9c12.2-21.2,15.7-45.7,25-68
		c16.5-12.7,22.5-31.4,28.6-50.1c0.1-3.9-0.4-8.1,3.6-10.7c11.2-26.2,31-44.8,53.7-60.8c2.3,0,4.7,0,7,0c22.7-3.9,43-10.7,54.9-33.7
		c4.8-9.3,15.7-13.6,26.9-15.5c17.7-3,35.5-1.9,53.2-3.9c5.3-0.6,11.7,0.5,14.4-4.9c8.8-17.1,24.4-14,39.7-16.4
		c34.4-5.3,68.6-0.6,102.9-2.5c2.9-0.2,6-0.4,8.5,1.7l0,0c12.8,2.4,26.9,1.6,29.1,20.6c0.7,6.3,26.8,9,33.5,4.4
		c3.9-2.6,7.7-2.3,11.5,0c4.5,2.6,8.5,6.7,14.4,4.3c1.7-0.4,3.3-0.5,5-0.6c2.6,0.1,5,0.9,7,2.6c2.7,4.1,1.1,7.8-0.6,11.7
		c-6.7,15.2-6.6,15.3,10.3,15.4c7.9,1,15.9,2.2,23.6-1.2c0.8-0.2,1.6-0.3,2.4-0.5c8.9,15.8,25.3,25,35.4,39.7
		c-4.7,5.3-11.2,4.2-17.3,4.9c-3.1,0.4-7.8,0.1-3.7,5.5c7,5.4,6.8,11.7,3.2,19c-2.1,4.4-8.3,9.5-3.1,14c4.4,3.7,11.1,3.3,15.9-1.9
		c0.7-1.4,1.5-2.7,2.3-4c4.1-5.9,2.4-11-2-15.9c-1.4-7.5,2.2-12.9,7.4-17.5c13,3.6,14.3,19.4,25.7,24.6c7.4,1.9,8.3,8.7,10.7,14.3
		c1.3,11.3,13,17.3,14.3,28.6c-3.9,2.4-8,0.1-11.9,0.4c-4.2,0.3-8.1,1.4-10.4,5.3c-1.5,2.4-0.9,4.6,1.6,5.8c3.9,2,7.9,1.8,11.8,0.2
		C696.3,221.3,697.7,216.9,701.3,214.8z"/>
	<path class="st0" d="M615.5,647.7c-2.4,1.2-4.8,2.4-7.1,3.6c-13,7.4-24,18.6-39.8,20.3c-9.2,20.9-31,23-48.2,26.5
		c-22.9,4.6-40.2,21.5-63.3,23.9c-25.1,6.7-50.6,4-76,4.1c-12.3-5.1-26.4-3.3-38.4-9.7c-4.6-6.5-4.4-13.4-1.6-20.5
		c12.6-11.1,31.6-8.5,43.8-20.4c14.1,12.6,29.3,9.7,44.7,1.1c-3.6,1.5-8.1,0.1-10.5,2.4c-10.7,10.1-20.4,4.6-30.3-0.9
		c-8.5-3.6-18.5-1.3-26.7-6.5c-4.7-1.4-9.6-0.1-14.3-1.3c-7.5-3.6-8.4-10.5-9-17.6c-1.1-13.8,8-11,16.1-9.8c5.2,0.8,10.1,3,15.2,4
		c1.7,0.4,3.4,0.9,5,1.5c14.9,6.2,30.1,6.6,45.5,2.9c4.9-1.7,9.7-3.5,14.7-4.7c5-0.7,9.7-2.8,14.9-2.8c12,2.6,18.5-4.5,24-13.5
		c3.3-2.6,7.1-5.2,8.7-8.7c11.7-25.2,34.9-27.1,58-28.8c7.8-0.6,15-3.3,22.6-4.2c7.2-1.5,14.6-5,20.4,2.9c-1.4,5-5.7,6.2-9.9,7.6
		c-2.2,0.5-4.2,1.8-6.6,1.5c2.2,0.7,4-0.7,6.1-1.1c6.5,2.3,9.3-1.2,10.8-6.8c3.8-3,8.1-2.9,12.5-1.9c6.7,2.3,13,5.3,17.6,11
		c4.2,7.7,4.5,17,11.8,23.6c4.8,4.4,0.9,8.5-3.4,11.5c0,1.2,0,2.3,0,3.5C620.2,642.9,619.8,647.2,615.5,647.7z"/>
	<path class="st0" d="M182.8,644.1c-2.4-2.4-4.8-4.8-7.1-7.1c-11.3-5.6-15.6-17.3-22.6-26.5c-7.1-9.3,4-11.2,8-15.9
		c4-2.2,8.1-3.9,12.6-4.8c8.4-1.2,16.7-1.3,25,0.6c3.5,0.9,6.7,2.4,9.9,4.2c10.3,6.3,21.3,8.9,33.3,6.5c4.4-1,8.9-1.1,13.3-1.3
		c7.3,0,14.8-0.8,20.8,4.8c-2.8,20.8,11.4,27.6,27.2,32.8c8.1,2.6,16.2,4.9,7,15.3c-9.7,3.7-18.3,1.5-26.7-4.1
		c-4.1-2.8-8.2-8.7-13.8-4c-4.8,4-2.2,9.8-0.8,14.9c1,3.4,2.1,6.8,1.4,10.4c-2.5,6.5-3.6,13.6-8.8,18.8c-7.2,2.8-12-0.8-16.1-6
		c-2.5-3.5-4.2-7.5-6-11.4c-9.5-13.4-26.5-17.1-37.4-29.1C196.4,635.9,190.1,650.2,182.8,644.1z"/>
	<path class="st1" d="M476,43.1c-30,2.1-59.8,4.5-90.2,2.4c-12.8-0.9-26.8,5.7-41.4,2.9c-6.8-1.3-11.9,7.1-13,12.5
		c-2,9.9-7.9,10.9-15.3,10.3c-18.3-1.4-36.3,1-54.5,2.1c-17.5,1-28,10.4-35.1,25.6c-7.6,16.3-36,26.7-50.9,19.3
		c26.8-27.5,58.7-46.7,94.3-61c50.4-20.2,102.6-27.5,156.4-24.7C443.3,33.5,460.1,36.6,476,43.1z"/>
	<path class="st2" d="M729.9,479.5c-5.6-2.7-9.5-8.4-6.5-12.9c11.9-17.5,2.9-36.9,5.5-55.2c2.9-20.1-1.4-41.2-2.6-61.8
		c-1.1-17.7,2.7-35.6-2.9-53.1c-1.6-5.1,0.2-9.4,6.5-10.2c8,6,8.2,15.8,9.7,23.9c6.6,37.2,10.6,74.6,1.1,112
		C743.1,442.5,729.2,459.7,729.9,479.5z"/>
	<path class="st3" d="M343.7,722.8c-19.1-10-41-10.4-60.8-17.9c-36.4-15.3-71.8-32.3-100.1-60.8c12.2-12.7,22.6-13.1,32.5,3.2
		c6.4,10.5,24.7,6.9,28.3,21.8c-4.7,5.6,0.9,7.7,3.6,10.7c2.7,6.4,8.2,7.5,14.3,7.2c10.6-5,20.7,1.6,28.5,5.2
		c17.8,8.2,38.3,10.2,53.8,23.4c12.4,0.1,25.1-1.6,35.8,7.1c-8.3,2.8-16.7,2.7-25,0C350.9,722.8,347.3,722.8,343.7,722.8z"/>
	<path class="st4" d="M75.5,497.5c0.7-1.6,1.3-4.5,2-4.5c6.7,0.2,32.8,24.3,33.8,30.8c2.7,17.2,14.9,29.8,21.4,45.2
		c-0.2,7.8,14.5,5.5,10.6,15.8c-13,10.7-18.4-0.7-24.9-8.6C96.7,554,88.8,524.3,75.5,497.5z"/>
	<path class="st5" d="M622.6,637c0.7-3.1,4.9-7.8,0.6-9.2c-12.3-4.1-8.9-14.8-11.4-23c3.8-4-4.9-9.9,2-13.4
		c5.5-3.1,11.9-3.4,17.3-7.7c7-5.8,15.1-6.1,20.9,2.9c0.6,7-5.9,4.6-8.9,6.4c4.3-1,8.7-1.4,13.2-2c5.3,1.6,9.3,3.8,5.6,10.3
		C652.2,616.8,639.1,628.8,622.6,637z"/>
	<path class="st6" d="M558.2,687c-23.8,9.5-47.7,19.1-71.5,28.6c-9.5,2.4-19,3.6-28.6,0.1c13.9-5.6,32-3.1,39.7-20.7
		c15.3,4.3,28-4.9,41.9-7.9c3.4-0.8,6.7-2.1,10.1-3c11.7-3.4,19.6-8,5-22.2c23.9,16,35.9-8.6,53.5-10.5
		C593.4,665.6,575,675.2,558.2,687z"/>
	<path class="st6" d="M565.4,75.4c-5,6.2-9.1,6.2-13.7-0.8c-2.5-3.8-6.2-7.8-11.8-3.4c-6.3,5-34.9,3.9-41.5-1.5
		c-0.9-0.7-2.5-2.1-2.3-2.5c10.6-22.5-11.5-17.7-20.1-24.1c14.1-3.2,26,6.1,39.3,7.2c10.2,4.7,22.1,4.2,32.1,9.9
		c1.5,0.5,3,1.2,4.4,2C556.8,66.1,563.4,68.4,565.4,75.4z"/>
	<path class="st7" d="M650.5,143.8c0.4,6.8-4.3,11.6-6.5,17.4c0.7,5.4-3.8,8.6-5.6,12.9c0.4,5.6,6.9,4.8,8.9,8.6
		c-6.4,14.4-19.3,8.6-26.7,4.9c-8.5-4.2,1.2-12,3.3-18c1.9-5.6,12.7-11.3-1.1-15.7c-6.9-5.4-9-10.7,2.2-12
		c7.4-0.8,15.3-1.8,22.8,1.1C648.7,143.3,649.6,143.6,650.5,143.8z"/>
	<path class="st8" d="M687,182.6c-6.4-2.7-7.8-9.1-10.7-14.3c-2.2-7.8-4.1-15.6,7.4-17.3c9.8-1.5,19.9-1.6,23.9,9.9
		c3.5,9.9-3.5,13.5-11.8,16C692.5,177.8,689.9,180.7,687,182.6z"/>
	<path class="st9" d="M139.9,608.3c-1.2-1.2-2.4-2.4-3.6-3.6c-0.7-12.8-17.2-15.8-17.9-28.6c7.4,5.9,14.4,12.9,25,7.1
		c6.2,4.5,12.4,9,17.9,14.3c-2.2,4.7-11.5,8.3,1,14.4c3.2,1.6,7.3,17,13.3,25C159.5,632.8,153.6,615.6,139.9,608.3z"/>
	<path class="st10" d="M740.7,422.3c5.8-42.5,4.4-84.5-7.3-126c-1-3.4-2.3-6.7-3.5-10c-1.2-7.2-4.8-13.9-3.6-21.5
		c2.5,1.5,7,2.6,7.4,4.5C742,320.1,758.6,370.4,740.7,422.3z"/>
	<path class="st11" d="M547.5,64.6c-10.4-5.5-24-3.8-32.2-14.3c2.4,0,4.8,0,7.2,0c5.6-3.2,10.8-7.7,17.9-3.6l0,0
		c1.2,1.4,2.4,2.7,3.6,0c8.7-10.1,13.4,3.1,20.2,3.6c2.7,0,5.1,0.8,7.2,2.5c2,1.8,3.4,4.1,4.2,6.6c1.7,6.9-0.1,12.4-6.6,15.9
		c-1.2,0-2.4,0.1-3.6,0.1c-5.2-3-11.6-4.4-14.4-10.7c0.4-1.2,1-2.1,2-2.6C550.3,61,549.4,63.9,547.5,64.6z"/>
	<path class="st12" d="M585.9,104.2c-6.8,4.6-15.2,6.8-20.4,0.1c-4.6-6,0.7-12.8,5.2-18.4c2.5-3,3.9-6.9,5.8-10.4
		c-0.2-4.7,1.2-8.1,6.6-8.6c4.4,1.3,7,4.3,7.9,8.7c-0.5,3.7-0.2,7.7-3.7,10.4c-4.3,4.5-2.2,7.4,2.7,8.8c4.1,1.2,6.1,3.2,5.1,7.5
		C592.7,106.2,589.5,106,585.9,104.2z"/>
	<path class="st13" d="M712,529.6c-0.3-6.1,0.8-11.5,7.1-14.3c2.5-0.4,4.4-6.2,6.6-2.4c3.6,6.2-7.3,41.6-13.1,46.5
		c-2.7,2.2-5.4,6.3-8.9,3.8c-3.9-2.8-3.1-8-0.4-11.2C708.9,545.4,713.6,538.8,712,529.6z"/>
	<path class="st14" d="M701.3,214.8c-1.8,12.5-18.3,20.2-27.5,12.3c-8.3-7.1-1.4-13.4,3.7-17.3c7.6-5.7,16.3-5.8,23.8,1.5
		C701.3,212.4,701.3,213.6,701.3,214.8z"/>
	<path class="st15" d="M111.3,189.8c-0.5,2.3-2,4.9-1.5,6.9c6.9,24.5-10.4,33.7-27.1,43.2C87.7,220.6,99.1,204.9,111.3,189.8z"/>
	<path class="st16" d="M662,601.2c-0.2-4.6-2.6-7-7.2-7.2c-2.8-2.7-1.4-6.7-2.7-9.8c0.1-1.7,0.5-3.4,1.3-5
		c5.7-4.7,10.6-11,19.3-10.2c3.6,1.2,7.2,2.4,10.8,3.6C678.9,584.1,671.9,593.8,662,601.2z"/>
	<path class="st17" d="M591.1,75.8c-2.6-2.3-5.1-4.6-7.7-6.9c-0.2-2.3,0.6-4.3,1.8-6.2c1.2-1.8,2.4-3.6,3.3-5.5
		c-0.1-8.5-14.5-3.7-12.8-13.7c8.5-4.3,17.6-1.1,26.3-2c7.2,4.2,5.5,10,2.6,15.9C598.9,62.6,598.4,71.7,591.1,75.8z"/>
	<path class="st18" d="M576.5,46.6c3.4,0.6,6.9,1.7,10.3,1.8c14.5,0.4,9.5,6.5,3.8,12.8c-7.4-2.2-15.2-3.3-22.2-7.1
		c-1.4-1.3-2.8-2.6-4.2-3.9c1.8-2.8,4.5-4,7.7-3.9C573.6,44.6,575.1,44.7,576.5,46.6z"/>
	<path class="st19" d="M647.8,143c-7,0.1-14-0.1-21,0.3c-9,0.5-7.1,5.4-3.9,10.6c-4.9-0.3-7.6-2.7-7-7.9c0.6-5.4,4.6-6.2,8.9-6.2
		c7.6-0.1,15.2,0,22.8-0.1C647.7,140.8,647.8,141.9,647.8,143z"/>
	<path class="st20" d="M576.5,46.6c-1.5-0.1-3-0.2-4.5-0.3c11.1-12,23.6-7.2,36.1-3.2c-1.2,1.1-2.4,1.2-3.6,0.1
		C595.1,44.7,585.1,40,576.5,46.6z"/>
	<path class="st21" d="M594,100.4c-1.7-5-17.3-3.5-6.6-14.2c1.6,12.2,11.1,5.9,17.2,7.3c1,1.5,1.1,3.2,0.4,4.8
		C601.9,101.9,598.5,104.2,594,100.4z"/>
	<path class="st22" d="M540.4,46.7c-6,1.2-11.9,2.4-17.9,3.6C527,41.9,532.1,36.2,540.4,46.7z"/>
	<path class="st18" d="M604.4,43.3c1.2,0,2.4-0.1,3.6-0.1c6.9,6.6,3,10.6-3.3,14.1C604.4,52.7,601.6,48.1,604.4,43.3z"/>
	<path class="st0" d="M604.5,96.9c0.1-1.1,0.2-2.3,0.2-3.5c9.2-5.5,6.3,3,7.6,6.6c0,0-0.8,0.7-0.8,0.7
		C607.4,102.7,604.6,102.4,604.5,96.9z"/>
	<path class="st23" d="M606.8,69.4c1.8,2.1,3.3,3.2,3.7,4.6c0.6,2.6-1.1,4.1-3.6,4.4c-1.9,0.2-3.6-0.7-3.2-2.7
		C604.1,73.8,605.5,72,606.8,69.4z"/>
	<path class="st24" d="M615.5,647.7c2.4-2.4,4.8-4.8,7.1-7.1c-0.6,3.3,3.3,7,0,9.6C620.1,652.2,617.2,650.3,615.5,647.7z"/>
	<path class="st22" d="M544,46.7c2,0.4,4.8,0.1,4.3,3.2c-0.2,1.1-2.4,2.7-3.6,2.7c-3.6,0-3.9-3.1-4.3-5.9
		C541.6,46.7,542.8,46.7,544,46.7z"/>
	<path class="st25" d="M343.6,150.4c3.1-5.7,7.1-11,7.2-17.9c-1.1-6.1,0.6-10.6,6.9-12.7c7.4,0.4,10.5,5.8,13.3,11.5
		c1.1,2.7,1.5,5.6,2.3,8.4c3.3,11.7,8.4,8.5,13.9,1.6c3.8-2.1,7.8-2.2,11.8-0.8c2.9,1.2,4.9,3.5,7.2,5.4c3.6,2.6,6.5-0.2,9.7-1.2
		c10.3-1.4,19.5,0.5,27.3,7.9c1.8,2.3,2.4,4.8,1.4,7.6c-5.3,6.9-12.5,5.7-19.5,4.1c-8.8-2-17.5-2.5-26.3,0.2
		c-1.8,0.6-3.6,0.9-5.4,1.2c-19.2,1.8-39,0.7-56.3,11.9c-3.7,3.7-8.5,5.7-12.9,8.3c-6.5,3.6-12.4,8.3-19.4,11
		c-10.9,2.5-19.3,8.7-25.7,17.6c-4.2,6-9.4,10.5-16.2,13.3c-3,1.5-6,2.7-9.3,2.9c-2.7-0.4-4.4-1.9-5.5-4.3c-0.8-2.4-0.7-4.8,0-7.2
		c0.8-2.3,2.1-4.3,3.4-6.3c3.6-5.1,6.7-10.6,12.4-13.9c7.2-9.6,16.4-16.9,26.5-23.1c5.9-3.6,11.8-7.2,17.6-10.8
		C318.5,156.3,331.6,154.6,343.6,150.4z"/>
	<path class="st26" d="M529.6,175.5c-0.7-2.3-0.7-5.1-2.1-6.7c-5.9-6.5-4.6-11.9,2.4-16.1c6.6-3.9,13.7-3.4,16.7,3.9
		c7.5,18.2,25,24.3,39.7,33.1c19,11.5,26.5,23.5,24.4,47.5c-6.7,0.1-13.6-7.9-20.3-1c-4.1-3.7-10.6-2.6-14.3-7.2
		c-1.2-1.2-2.4-2.4-3.6-3.6c-5.6,1.7-6.7-3-8.2-6.2c-2.9-6.2-4.9-0.5-7.4,0.2c-14.6-6-22.3-18.9-30.9-30.9
		C525,183.6,526.2,179.2,529.6,175.5z"/>
	<path class="st27" d="M207.9,422.3c-0.7-28.9-5.3-57.5-3.7-86.5c2.1-36.3,9.7-71.5,18-106.7c0.9-1.3,2.1-2.3,3.6-3
		c3.8-1.4,7.6-2.3,11.7-2.4c1.7,0.3,3.1,1.1,4.2,2.3c1.3,2.3,1.7,4.7,1.5,7.3c-0.6,4.3-2.4,8.1-4.5,11.8c-10,13.2-7.4,28.7-7.9,43.6
		c0,5.6-0.2,11.2-2.9,16.3c-4.5,5.6-7.8,11.5-7.6,19.3c0.6,18.4-0.6,36.8,0.8,55.2c-1.2,7,0.4,13.9,0.4,20.7
		C221.3,409.9,222.2,421.3,207.9,422.3z"/>
	<path class="st28" d="M243.7,153.6c-1,18.8-30.1,51.4-45.3,52.9c-4.9,0.5-7.8-2.9-9.8-6.5c-3.2-5.5-3.5-11.7,0.2-16.9
		c8.1-11.6,22.5-18.5,21.7-36.8c-0.2-4.9,14.6-8.1,23.9-5.3C241.6,143.1,244.9,148.1,243.7,153.6z"/>
	<path class="st29" d="M529.6,175.5c0,4.7,0,9.5,0,14.2c-2.5,1.5-4.5,0.2-6.4-1.3c-6-7.3-14.4-11.3-22.4-16c-1.4-0.8-2.7-1.6-4-2.5
		c-9.9-6.4-21.3-9.7-32-14.2c-7.6-3.2-12.9-7.8-15.4-15.6c-0.6-1.4-1.1-2.9-1.5-4.4c-1-4.3-1.7-8.7-4.6-12.3
		c-1.7-2.6-2.8-5.4-2.9-8.5c-0.2-5.2,3-9.9,2-15.2c0.3-3.2,1.6-5.7,5-6.6c5.8,2.3,8,7.6,8.1,12.8c0.2,14.2,8.9,20.5,20.2,26.6
		c15.8,8.6,33.7,15.4,41,34.8C518.4,172,523.6,175.5,529.6,175.5z"/>
	<path class="st30" d="M597.6,408c6.6,6.1,13.9-8.4,20.5,1c7.9,11.3,12.7,23.8,15.1,37.2c1.2,6.6-1.3,11.3-8.6,13
		c-6.4,1.5-12.1,4.4-16.3,9.7c-4,0.4-7.4-0.8-10.4-3.4c-8.6-9.2-10.1-20.1-7.4-32c0.6-1.7,1.7-3.2,3.1-4.5
		c9.7,2.6,8.7,10.1,9.3,15.7c2-5.6-2.5-11.5-5.5-17.3C594.2,420.6,591.6,414.4,597.6,408z"/>
	<path class="st31" d="M572.6,243.4c3.8,9.1,5.6,19.9,19.8,18.2c7-0.9,8.2,4.4,8.9,10.4c2.4,22.3-0.4,44.4-3.7,66.8
		c0-18.7,0.2-37.4-0.1-56.2c-0.1-4.7,2.4-13.4-5.2-12.6c-8.8,0.9-1.3,8.4-1.7,12.8c-0.7,7.1-0.1,14.2-0.1,21.4
		c-4.4,0-5.8,2.1-5.6,6.6c1,24.9-2.6,49.7-1.8,74.6c0.2,7.3,3.1,13.8,4.1,20.6c1.3,8.3,4.1,17.9-5.6,24.1
		c-11.6-13.1-10.4-29.6-11.1-45.1c-1.2-29.7-1-59.4-0.1-89.1c0.5-16.7-6-32.8-3.2-49.6C568.3,244.2,570.1,243.2,572.6,243.4z"/>
	<path class="st32" d="M583.1,429.9c-3.7-46.6-4.3-93.2-2.9-140.2c10.2,0.8,3.9,12,10.2,14.6c1.3,31.1-6.1,61.9-3.6,93
		c7.7,11.1,4.1,23.9,5.3,36c0.1,9.8-0.6,19.5,4,28.8c2.6,5.3,2.7,11.4-4.2,14.7c-7.7-1.9-9-8-9.8-14.5
		C583.4,451.6,573.8,440.4,583.1,429.9z"/>
	<path class="st33" d="M368.7,132.6c-4.4-2.9-5.3-9.4-11.1-10.9c-2.8-3.7-2.2-7.2,0.5-10.6c2.9-5.9,8.3-7.2,14-7.8
		c1.1-0.5,0.1,3.6,1.9,1c0.9-1.3,0.8-3.2,1.5-4.7c1.2-1,2.3-1.9,3.5-2.9c19.3-8.9,37.5-6.8,54.6,5.7c1.5,1.1,2.8,2.4,3.8,3.9
		c0.6,1.7,0.8,3.4,0.4,5.1c-3.1,4.8-5.1,10.7-11.5,12.4c-5.3,0.2-8.8-3.2-12.3-6.4c-1.2-1-2.3-2-3.5-3.1c-5.1-3.1-10.2-2.2-15.1,0.4
		c-6.5,3-11.1,8.4-16.6,12.8C375.6,129.5,372.5,131.6,368.7,132.6z"/>
	<path class="st34" d="M200.5,504.2c0.8-5.4,2.9-10.1,6.7-14.1c6.8-7.4,6-17.3,8.4-26.1c0.6-1.5,1.5-2.9,2.7-4.1
		c2.7-2.1,5.7-3.5,9.3-3c3.6,1.7,4.3,4.8,4.2,8.4c-0.9,4.9-1.4,9.8-1.5,14.7c-0.3,3.3-1,6.5-2.7,9.5c-7.7,8.4-11.9,18.5-14.4,29.4
		c-4.4,7.7-10,14.6-14,22.5c-5.4,6-8.7,13.9-16.3,17.8c-9.7-2.3-4.9-10.4-6.3-16c0.4-2.4,1-4.7,2.4-6.7l-0.1,0.1
		C187.5,526.7,194.6,515.8,200.5,504.2z"/>
	<path class="st35" d="M232.9,204.1c6.2-19.6,11.6-39.8,32.3-50.2c5.4-2.7,9.8-3.6,13.6,2.6c3.6,5.9-0.5,8.1-4.1,11.5
		c-6.4,5.9-14.6,11.1-13.2,21.8c-5.1,2.4-7.3,8.6-13.2,10c-2.2,1.5-6.8-1.9-7.1,4.4c-0.2,5.1-4,4.6-7.3,2
		C233.5,205.5,233.2,204.8,232.9,204.1z"/>
	<path class="st36" d="M447.4,93.2c-1.2,2.4-2.4,4.8-3.6,7.2c1.3,5.2-2.2,5.6-5.9,5.7c-7-1.1-11.2-7-17.1-9.9
		c-4.2-5.9-10.2-2.9-15.6-3c-8.4-1.1-16.8,4.6-25.3,0.3c-2.3-8-7.1-16.5,7.3-18.2C410.1,72.5,428.9,82,447.4,93.2z"/>
	<path class="st37" d="M161.4,597.6c-10,0.3-16.4-4-17.9-14.3c-4.3-2.8-8.8-5.3-12.8-8.4c-4.5-3.5-2.6-5.3,2.1-5.9
		c7.1,5.7,14.3-1.1,21.4,0c8.2-2.7,14.8,3.4,22.5,4c5.2,2,10.7,1.7,16.1,2c17.8,3.1,35.4,6.9,53,10.5c5.4,1.1,12.3,0.5,12.6,8.9
		c-11.3,8.4-23.3,3.2-35,1.6c-7.1-1.6-14.1-4-21.3-5.1c-11.5-1.9-23.2-2.7-35.5-4.2c-1.2-1,0.4,3.1,1.5,1c0.2-0.5,0.7-0.1,1.6,0.7
		c2,1.5,3.5,3.1,2.4,5.8C168.5,595.2,164.9,596.4,161.4,597.6z"/>
	<path class="st38" d="M207.8,232.7c-0.9,11.1,2.3,22.5-2.5,33.3c-2.2,4.8-4.5,11.4-10.3,10.6c-6.8-0.9-6.2-7.1-6.9-13.6
		c-1.9-16.2-3.8-31.6,9-44.6C204.1,220.6,209.5,224.1,207.8,232.7z"/>
	<path class="st39" d="M592,476c5.6-14.5-5-28.5-1.5-42.9c1.2-1.7,2.4-1.7,3.6,0c-1,11.5,0.7,22.4,7.2,32.2c5.1,5,8,11.4,10.7,17.9
		c12.7,11.5,18.6,25.8,17.9,42.9c-1.3,1.3-2.9,2-4.7,2c-9.9-2.4-13.5-10.3-16.6-18.7c-1.1-9.1-3.9-17.3-11.7-22.9
		c-2-1.5-3.8-3-5.5-4.9C590.4,479.5,588.1,477.4,592,476z"/>
	<path class="st40" d="M207.9,422.3c9-7.6,12.9-16.7,7.4-27.9c-2.5-5.2-2.6-9,3.3-11.5c3-2.3,5.8-2,8.6,0.4
		c9,19.6-0.1,39.1-0.4,58.7c-1.4,7.1-3.5,13.9-8.4,19.4l0.1,0c-2.8,2.1-0.1,9-6.7,7.8c0.2-6.4-6.1-11.5,1.8-19.6
		C219.8,443.3,211.2,431.4,207.9,422.3z"/>
	<path class="st35" d="M207.8,232.7c-3.6-4.8-7.2-9.5-10.7-14.3c9.1-11.8,21.7-15,35.8-14.3c0,0,0,0,0,0c2.3,4.2,7.3,7.4,5.1,13.3
		c-3.9,4.1-8.8,7.1-12.2,11.7c-1.2,0-2.4,0-3.6,0C217.4,230.3,212.6,231.5,207.8,232.7z"/>
	<path class="st41" d="M672.7,569c-5.1,5-9.8,10.6-17.9,10.7c-3.6,0.2-6.5-0.9-8.4-4.2c-0.6-8.2-2-16.1-7.9-22.7
		c-3.2-3.5-5.2-7.9-2.3-12.9c1.5-1.1,2.9-1,4.3,0.4c7.2,6.4,14.3-5.4,21.5,0c1.2,3.6,0.8,7.7,3.6,10.7c0,1.2,0,2.4,0,3.6
		c0.1,4.7,4.6,4.9,7.1,7.1C672.7,564.2,672.7,566.6,672.7,569z"/>
	<path class="st42" d="M175.4,576.3c-8.4,1.5-15.1-2.2-21.2-7.3c0-2.4,0-4.8,0-7.2c0.7-3.7,4.2-4.8,6.4-7.2c1.4-1.3,2.7-2.5,4.1-3.8
		c7.8,3.9,6.8-10.9,14.6-6.9c6.8,3.4-3.3,10.9,3.6,14.3c1.4,0.9,2.5,2.1,3.3,3.6c1.6,3.9,2.9,7.8,0.5,11.9
		C183.2,575.9,179.8,578.3,175.4,576.3z"/>
	<path class="st32" d="M597.6,408c-1.9,14.8,10.7,27.5,5.6,45.2c-3-9.5-1.8-18.6-9.2-23.8c-7.5-8.7-6.3-18.6-3.6-28.6
		C595,401,597.4,403.4,597.6,408z"/>
	<path class="st43" d="M633.2,172c3.6-3.6,7.2-7.2,10.8-10.8c19.6,2.7,8.1,11,3.3,18C640.2,181.6,633.8,182.4,633.2,172z"/>
	<path class="st44" d="M380,93.4c9.3-1.2,18.6-2.4,27.8-3.6c4.6,1.9,10.6-1.3,14.4,3.6c4.7,3.5,9.4,7.1,14.1,10.6
		c1,0.8,1.4,1.5,1,2.3c-0.3,0.8-0.7,1.1-1,1.1c-17.4-12.6-37.4-11.2-57.3-10.9C379.4,95.6,379.7,94.5,380,93.4z"/>
	<path class="st45" d="M290.7,175.8c-8.5,8.3-17,16.5-25.6,24.8c-3.5,1.1-4.4-0.4-3.6-3.6C266,182.7,277.3,177.8,290.7,175.8z"/>
	<path class="st46" d="M572.6,243.4c-1.2,0-2.5,0.1-3.7,0.1c-0.6-0.5-1.2-1-1.9-1.5c-3.1-4.5-4.8-9.9-8.5-14.2
		c-1.7-2.9-3.1-5.8-0.5-8.9c0.1-3.3-1-8.3,0.6-9.4c3-2,6.3,1.3,8.6,3.7c3.1,3.4,0.7,9.4,5.4,12.2
		C572.6,231.5,572.6,237.5,572.6,243.4z"/>
	<path class="st47" d="M358,86.1c3.8-1.9,5-8.9,13.2-4.9c-8.5,5.9-16.6,11.6-25.1,17.5c-1.2-1,3.6-4.9,4.8-9
		C352.5,86.9,354.9,85.8,358,86.1z"/>
	<path class="st48" d="M587.2,64.7c-1.3,1.4-2.5,2.8-3.8,4.2c-2.3,2.2-4.5,4.5-6.8,6.7c-2.5-0.1-5.1-0.2-7.6-0.3
		c3.3-5.5,3.9-11.5,3.6-17.8C579.2,56.2,588.1,50.5,587.2,64.7z"/>
	<path class="st49" d="M200.5,504.2c-1.9,14.4-9.9,24.6-21.6,32.4C183.7,524.2,191.3,513.7,200.5,504.2z"/>
	<path class="st50" d="M375.6,99.5c0.1,1.7,0.4,3.5,0.2,5.2c-0.7,5.4,2.6,11.8-3.6,15.8c-1,0.7-3.9,0.3-4.6-0.6
		c-5.8-7.4,3.9-10.8,4.5-16.6C373.3,102,374.4,100.7,375.6,99.5z"/>
	<path class="st51" d="M604.5,96.9c2.3,1.3,4.7,2.5,7,3.8c-6.9,12.7-16.3,7.7-25.6,3.5c3.1-0.3,6.3-0.7,8.1-3.8
		C597.5,99.2,601,98.1,604.5,96.9z"/>
	<path class="st52" d="M343.6,150.4c-11.8,4.8-23.6,9.7-35.3,14.5c0,0-0.6-0.4-0.6-0.4c-1-1.2-0.9-2.4,0.3-3.4
		C319.3,155.6,330.5,149.8,343.6,150.4z"/>
	<path class="st53" d="M590.4,400.9c-0.8,9.8,0.7,19.3,3.6,28.6c0,1.2,0,2.4,0,3.6c-1.2,0-2.4,0-3.6,0c-6.3-11.4-2.6-23.8-3.6-35.8
		C588.1,398.5,589.3,399.7,590.4,400.9z"/>
	<path class="st54" d="M211.6,469.3c2.3-2.6,4.5-5.2,6.7-7.8c-2.1,10.2,0,22-11.2,28.7C208.7,483.2,210.2,476.2,211.6,469.3z"/>
	<path class="st55" d="M247.2,197c4.9-2.1,8.1-7.6,14.3-7.1c-1.2,2.4-2.4,4.8-3.6,7.1c0,6.2-2.4,10.7-8.7,12.7
		C238.4,207,240.8,202.3,247.2,197z"/>
	<path class="st52" d="M358.1,111.1c-0.2,3.5-0.3,7.1-0.5,10.6c-2.3,3.6-4.5,7.2-6.8,10.8C343.7,122.1,351.4,116.8,358.1,111.1z"/>
	<path class="st56" d="M672.7,561.8c-5.4-2.1-8,9.5-12.9,3.7c-4-4.8,3.8-7.1,5.7-10.8C670.1,554.9,672.5,557.2,672.7,561.8z"/>
	<path class="st19" d="M250.8,207.7c2.4-3.6,4.8-7.2,7.2-10.7c1.2,0,2.4,0,3.6,0c1.2,1.2,2.4,2.4,3.6,3.6
		c-3.6,4.7-7.2,9.5-10.8,14.2C251.6,213.2,250.5,210.7,250.8,207.7z"/>
	<path class="st49" d="M179.2,543.9c-6.9-2-3.6,17.6-14.6,6.9c4.8-4.8,9.6-9.6,14.4-14.3C179.1,539,179.2,541.5,179.2,543.9z"/>
	<path class="st56" d="M665.5,551.1c-7.5-1.5-9.3-4.9-3.6-10.7c2.1-0.1,5.4-1.1,6-0.2C670.6,544.3,666.7,547.5,665.5,551.1z"/>
	<path class="st31" d="M576.1,229.1c5.7,0.6,13-2.2,14.3,7.2C582.9,239.4,577.7,237.9,576.1,229.1z"/>
	<path class="st57" d="M358,86.1c-1.6,2.8-4.2,3.5-7.2,3.6c-3.6-3.1-5-7.1-0.3-9.5C355.3,77.7,357.5,81.6,358,86.1z"/>
	<path class="st32" d="M611.9,483.1c-4.7-5.3-9.9-10.3-10.7-17.9c2.9,0.1,5.6,0.8,7.1,3.6C610.7,473.3,612.4,477.9,611.9,483.1z"/>
	<path class="st58" d="M633.2,172c2.5,6.7,7.9,7.7,14.1,7.2c0.2,1.1,0.2,2.3,0.1,3.5C642.1,179.9,627.1,189.9,633.2,172z"/>
	<path class="st37" d="M160.5,554.6c-0.4,4-3.6,5.4-6.4,7.2c-1.8-1.1-5.2-2.7-5-3.2C151,552.4,156.5,555.6,160.5,554.6z"/>
	<path class="st32" d="M640.5,540.4c-1.3,0-2.6,0.1-3.9,0.1c-9.6-0.1-13.7-4.5-11.2-14.2c1.5-0.1,2.9-0.2,4.4-0.3
		C633.3,530.8,636.9,535.6,640.5,540.4z"/>
	<path class="st56" d="M676.8,545.7c0.7-2.5,1.7-4.3,3.7-3.3c1.1,0.6,2,2.7,2,4.1c0,1.8-1.3,3.6-3.4,2.7
		C677.9,548.6,677.4,546.6,676.8,545.7z"/>
	<path class="st59" d="M308,161.2c0,1.1-0.1,2.3-0.3,3.4c-2.7-0.8-8.2,2-7.3-3.3C301,157.6,305.3,157.6,308,161.2z"/>
	<path class="st60" d="M158.9,537.9c0.9,0.8,2.8,1.8,3,3.1c0.5,2.2-1.6,2.6-3.3,2.3c-1-0.2-2.4-1-2.8-1.8
		C155.1,539.5,156.2,538.3,158.9,537.9z"/>
	<path class="st61" d="M386.6,676.3c-10.1,16.1-26.2,17.7-42.9,17.9c-18.7,10.1-28.9,9.2-40-3.3c4.1-5.1,9.9-5,15.6-5.4
		c5.2-0.4,13.5,2.3,7-8.5c-6-10-8.1-20.6,0-30.9c7.5-3.9,12.1,1.9,17.5,5.3c0,6.9-1.1,14.2,7.1,17.9c3.6,0,7.2,0,10.7,0
		C371.6,665.7,378.3,673.8,386.6,676.3z"/>
	<path class="st62" d="M304.4,690.6c12.3,9.9,26.2,2.5,39.3,3.6c0,7.2,0,14.3,0,21.5c-28.5-6.4-55-18.6-82.2-28.6
		c0-6.9-1.1-14.3,7.2-17.9c6.4-4.8,11.2-0.4,14.9,3.7C289.7,679.8,297.6,684.6,304.4,690.6z"/>
	<path class="st63" d="M436.7,651.4c-4.6,1.2-9.2,2.5-13.9,3.7c-9.5,2.7-19.1,1.5-28.6,0.8c-4.7-4.1-4.7-9-2.6-14.3
		c6.1-8.5,16.2-4.4,24-7.8c4.1-1.4,8.3-2.8,12.5-3.9c6.4-1.1,12.9-2,18.3-6.2c4-1.8,8-3.4,12.4-1.7c4.3,2.5,6.1,6.2,5.8,11.1
		c-0.5,3.6-2.3,6.4-5.1,8.7C452.4,646.1,442.1,642.9,436.7,651.4z"/>
	<path class="st63" d="M372.1,651.4c-1.1,0.1-2.2,0-3.3-0.2c-7.2-5.9-16.8-7.4-24.3-12.9c-4.2-3.2-8-6.9-11.3-11
		c-2.8-3.5-7-7.6-2.9-12.2c3.6-4,9-3,12.9-0.4c7.7,5.1,14.6,11.5,24.6,11.7c4.3,1.2,8.6,2.6,12.9,4.1c4.9,2.5,11.1,3.6,11.2,11
		c-0.3,4.7,1.1,10.1-5.4,12.1C381.7,652.9,376.6,654,372.1,651.4z"/>
	<path class="st64" d="M343.7,651.3c-6-1.2-11.9-2.4-17.9-3.6c-3.2-3-1.6-6.6-1.2-10c-1-6.3-5.9-8-10.9-9.6c-5.1-2.6-4.8-7.4-5.1-12
		c-0.8-5.2-5.4-10.2-0.6-15.7c8-1.1,11.9,4.7,14.9,10.1c5.5,10,13.5,17.4,21.4,25.2c2.9,4.5,12.1,3.4,10.5,11.9
		C352,651.6,343.2,637.6,343.7,651.3z"/>
	<path class="st65" d="M565.4,594c-17.5,2.4-35.1,5.1-52.6,7.2c-8.5,1-14.2,4.6-17.9,12.5c-4.6,9.6-9.9,18.9-22.3,19.8
		c-0.3-0.8-0.6-1.7-0.9-2.5c8.5-14.5,14.4-31.3,32.6-37.2c20.1-2,39.7-10.8,60.4-4.8C566.4,590.3,566.7,592.1,565.4,594z"/>
	<path class="st66" d="M458.2,715.7c9.5,0,19.1,0,28.6-0.1c-25.4,9.2-51.8,11.8-78.5,10.5c-17.9-0.8-36.3,4.5-53.8-3.3
		c8.3,0,16.7,0,25,0C405.9,722.1,432.6,725.9,458.2,715.7z"/>
	<path class="st67" d="M386.6,676.3c16.3,10.2,33.2-3.6,49.7,1.7C419.8,675.6,402.5,705,386.6,676.3z"/>
	<path class="st65" d="M457.9,640.5c1.4-2.1,2.7-4.3,4.1-6.4c0.8-1.5,1.9-2.5,3.5-3.2c2.5-0.4,4.8,0,6.7,2c0,0,0.4,0.5,0.4,0.5
		c3.2,11.4-6.2,17.5-21.8,14.1C448.9,641,456.2,643.6,457.9,640.5z"/>
	<path class="st68" d="M565.4,594c0-1.3,0-2.6-0.1-3.8c3.2-11.6,13.1-6.8,20.4-8.4c6.9,0.3,14-0.7,20.6,2.5
		c5.8,5.8,1.1,8.1-3.5,10.3c-1.9,1-3.6,0.8-5.2-0.6c-4.8,0-9.5,0-14.3,0C577.3,587.4,571.4,591.5,565.4,594z"/>
	<path class="st69" d="M372.1,651.4c4.9,0,9.7-0.1,14.6-0.1c2,2,5.5,0.8,7.2,3.4c9.7,0.1,19.3,0.3,29,0.4
		C405.4,660.7,388.4,660.8,372.1,651.4z"/>
	<path class="st70" d="M457.9,640.5c-2.4,2.3-4.8,4.7-7.1,7c-4.7,1.3-9.3,2.6-14,3.8c-0.3-3.5-6.9-10.1,2.5-9
		C446,643.3,451.5,639.1,457.9,640.5z"/>
	<path class="st71" d="M583.3,594c-0.8,6.4,7.3,7,8.2,12.7c-8.1,4.1-11.8-6.9-18.9-5.5c-0.9-0.8-1.2-1.6-0.9-2.4
		c0.3-0.8,0.6-1.2,0.9-1.2C576.1,596.4,579.7,595.2,583.3,594z"/>
	<path class="st72" d="M597.6,594c1.2,0,2.4,0,3.6,0c3.6-2.4,7.1-2.8,10.7,0c0.8,3.6,13.2,7.1,0,10.7
		C607.1,601.2,602.4,597.6,597.6,594z"/>
	<path class="st69" d="M354.8,647.5c-3.6-3.5-7.3-7.1-10.9-10.6c1.1-1.5,2.2-1.5,3.4-0.1c8.7,2.5,16.1,6.9,21.5,14.4
		C364.1,650,359.4,648.8,354.8,647.5z"/>
	<path class="st68" d="M572.6,597.6c0,1.2,0,2.4,0,3.6c-3.4,4.4-7.4,4.1-11.9,2C563.1,596.6,568.2,598,572.6,597.6z"/>
	<path class="st73" d="M361.6,669.1c-3.6,4.5-7.2,4.5-10.7,0C354.4,664.7,358,664.7,361.6,669.1z"/>
	<path class="st74" d="M304.4,690.6c-8.2,0.6-14.8-0.8-19.4-9.2c-3.3-6.1-8.2-11.9-16.4-12.3c-2.3-5.4-5.3-10.7-6.7-16.4
		c-1.5-6-0.2-12.1,5.4-15.8c5.9-3.9,10.5,0.4,14,4c7.5,7.7,16.5,10.1,26.7,10.2c11,6.6,13.2,18.8,18.4,29.1c2.1,4.2,0.1,8-4.1,10.2
		C316.3,690.6,310.3,690.6,304.4,690.6z"/>
	<path class="st75" d="M322.3,690.6c4.1-16.4-12.7-25.1-14.3-39.3c3.2-4,6.9-6.9-2.5-8.5c-11.7-1.9-22.1-7.9-30.9-16.1
		c-6.9-6.5-8.5-12.9,1.3-18.3c14.6-5.6,26.7,1.9,39.3,7.2c-1,3.6-5.4,7.2,0,10.7c5.1,3.1,8.9,8,14.3,10.7c-1.2,3.6-2.4,7.2-3.6,10.7
		c0.4,11.4-2,22.8,8.5,32.5C341.7,686.9,339.2,689.3,322.3,690.6z"/>
	<path class="st76" d="M315.1,615.5c-13.9,2.1-26.4-4-39.3-7.2c-6.3-6.4-14.3-2.5-21.5-3.6c-4.8-1.8-9.5-5.7-14.3,0
		c-11.9,3-23.2,3.2-32.2-7.1c2-3.3,5.5-3.8,8.9-4.5c1.9-0.6,3.9-1.1,5.4-2.6c12,1.8,23.8,5.1,36,3.4c13.2-10.8,27-0.1,40.5-1.1
		c3.1,0.2,5.9,1.2,8.4,3c1.7,1.5,2,3.3,1,5.3C307.5,607.3,313,610.5,315.1,615.5z"/>
	<path class="st77" d="M172.1,594c-4.8-6.9-14-0.5-21.5-8.5c18.1-5.8,34.1-1.9,50.1,1.4c2.5,2,5.5,3.6,4.1,7.7
		c-1.5,0.9-2.9,0.7-4.1-0.5C191.2,594,181.6,594,172.1,594z"/>
	<path class="st62" d="M247.2,679.9c-4.4-1.1-11.5,2.9-12.4-4.7c-0.5-4.4,4.7-5.7,8.9-6.1C244.8,672.7,246,676.3,247.2,679.9z"/>
	<path class="st78" d="M240,604.7c-2.1-1.6-3.5-4.4-0.9-5.6c6.5-3,11,1.3,15.2,5.6C249.6,604.8,244.8,604.7,240,604.7z"/>
	<path class="st79" d="M200.7,594c1.2,0,2.4,0,3.6,0c4.8-4.1,9.5-3.2,14.3,0c-2.6,4-6.8,3.5-10.7,3.6
		C204.9,597.5,202.3,596.8,200.7,594z"/>
	<path class="st0" d="M299,53.6c1.5,1.6,2.5,2.7,3.5,3.8c-1.2,1-2.4,2.8-3.6,2.8c-1.2,0-2.4-1.8-3.6-2.8
		C296.5,56.3,297.6,55.2,299,53.6z"/>
	<path class="st71" d="M611.9,594c-3.6,0-7.1,0-10.7,0c2.4-2.4,4.8-4.8,7.2-7.1c3.5-9.8,14-6.9,20.4-11.5c6.2-2.3,12.3-5.1,18.3,0.4
		c3.1,0.3,6,0.9,7.8,3.9c0,1.2,0,2.4,0,3.6c-1.3,1-1.3,3.4-3.6,3.6c-7.2-3.7-13.8-5.9-19.8,2.7C626.6,596.4,618.6,593.4,611.9,594z"
		/>
	<path class="st41" d="M651.2,586.9c1.2-1.2,2.4-2.4,3.6-3.6c0,3.6,0,7.2,0,10.7c-4.6,0-9.2,0-16.6,0
		C644.2,590.7,647.7,588.8,651.2,586.9z"/>
	<path class="st80" d="M547.5,64.6c2.2-2.7,4.3-5.6,6.8-8c2.4-2.3,5.4-2.4,7.8,0.2c1,1.2,2.1,3.4,1.7,4.5c-1.6,3.9-5.1,0.9-7.7,1.6
		c-1.7,0.4-3.3,1.1-5,1.7C549.9,64.6,548.7,64.6,547.5,64.6z"/>
	<path class="st20" d="M587.2,64.7c-1.4-9.6-8.6-7.1-14.7-7.2c-1.4-1.1-2.7-2.2-4.1-3.4c7.6,1.8,18.2-6,22.2,7.1
		C589.5,62.4,588.4,63.5,587.2,64.7z"/>
	<path class="st81" d="M304.3,193.3c6.1-3.5,12.1-7.1,18.2-10.6c6-3.3,10.7-2.8,13.2,4.3c-0.5,18.9-19.6,23.7-27.9,36.8
		c-4.5,5.1-8.5,11.1-16.8,9.6c-2.2-1.5-5.1-2.5-4.9-6.2c-2.4,5.9,5.1,4.2,5.7,7.7c0.9,7-1.1,12-8.8,13.3
		c-10.8-4.2-16.4-10.8-11-22.8C278.3,210.2,289.5,200,304.3,193.3z"/>
	<path class="st82" d="M443.8,114.7c1.2,2.5,2.4,5,3.6,7.4c5.1,3.6-2.8,10.7,3.8,13.9l0,0c1.4,7.8,2.1,14,12.6,17.6
		c12.5,4.4,24.8,10.1,37.4,14.7l0,0c3.4,14.8-9.6,10.8-16.2,14.2c-7.9,0.7-14.4-2.7-20.6-6.9c-4.6-5.2-12-5.6-17.2-9.9
		c5.7-5.4,0.1-6.3-3.3-8c-1.2-1.2-2.4-2.4-3.6-3.6c-3.1-4.7-4.1-10.8-9.3-14.1c-2.9-4.3-4.9-8.8-3.2-14.1c4.5-3.9,2.5-11.8,8.8-14.5
		l0.4-0.4C440.9,109.3,441.9,112.7,443.8,114.7z"/>
	<path class="st83" d="M375.9,125.4c4.9-6,10.1-11.7,17.9-14.3c7.2-2.6,14.3-3.1,21.4,0.3c-0.1,1.1-0.1,2.3-0.2,3.4
		c-11.4,7.2-17.3,14.7-1.3,23.6c2.8,1.6,3.4,4.6-0.2,6.8c-4.7,2.6-8.7,1.3-12.6-1.7c-4.7,0-9.5-0.1-14.2-0.1
		c-4.5,4.5-11.1,7.6-14.5,1.8C368.8,139.3,367.9,130.7,375.9,125.4z"/>
	<path class="st84" d="M394.2,161.3c1,0.3,2.1,0.3,3.1,0c15.5-6.3,30.2,3.8,45.5,2c1.9,1.2,2.5,2.9,1.9,5.1
		c-7.9,7.2-17.7,4.4-26.9,5.1c-16.8,1.2-34.3-3.2-49.9,6.7c-3.4,3.2-7.3,5.6-11.9,6.8c-4.5,0.6-9.2,2.5-13.2-1.3
		c-2.7-8.1,2.5-12.3,7.9-16.4C364.7,164.7,379.6,164,394.2,161.3z"/>
	<path class="st85" d="M304.3,193.3c-10,10.1-23.5,17-28.8,31.4c-4.9,7.3-7.6,15.8-11.6,23.5c-2.5,3.4-4.5,7.5-9.9,6.4
		c-1.3-1.2-2.2-2.7-2.7-4.3c-1.3-5.4,0.3-10.2,2.9-14.8c2.5-3.3,4.4-7,7.3-10c8.4-8.4,16.5-17.1,25.4-25
		C291.5,196.4,297,192.2,304.3,193.3z"/>
	<path class="st28" d="M250.8,207.7c2.8,1.6,3.4,4.2,3.5,7.1c-1.1,1.2-2.2,2.5-3.4,3.7c-3.4,2.7-3.8,10-10.9,7.1c-1.2,0-2.4,0-3.6,0
		c-1.4-2.4-1.1-4.8,0-7.2c-1.2-4.8-2.4-9.5-3.6-14.3c8.6,5.2,5.6-12.5,14.3-7.2C245.2,201.6,241.6,206.7,250.8,207.7z"/>
	<path class="st86" d="M394.2,161.3c-14.4,3.5-28.9,7-43.3,10.6c-5.7,2.5-10.6,8.9-17.9,3.6C350.9,159.9,373,162.4,394.2,161.3z"/>
	<path class="st86" d="M400.9,143.5c4.8-0.1,9.6-0.2,14.4-0.4c5.3-5.5,11.7-4.7,18.2-3.4c11.2,0.5,7.6,8.1,6.7,14.3
		c-8.4-2.4-16.7-4.8-25.1-7.1c-2.8,3.4-6.7,3.6-10.7,3.6C401.8,148.9,401,146.4,400.9,143.5z"/>
	<path class="st86" d="M375.9,125.4c-5.3,11.3-8.6,21.4,10.7,18c1,3.5,5.2,8.2-1,9.9c-6.5,1.8-13.1-0.6-15.9-7.1
		c-1.7-4-0.8-9-1-13.6C368.9,128,371.3,125.6,375.9,125.4z"/>
	<path class="st86" d="M443.4,164.9c-15.4-1.2-30.8-2.4-46.1-3.6c9.1-6.8,18.9-3.9,28.5-1.9c6.3,1.3,12.5,3.8,18-1.8
		c2.5,0.6,5.1,1.1,7.6,1.7c-1.3,1.8-2.6,3.5-4,5.3C446.2,166,444.9,166.1,443.4,164.9z"/>
	<path class="st87" d="M333,175.5c6-1.2,11.9-2.4,17.9-3.6c-2.1,4.9-7.6,8.1-7.2,14.3c-2.7,3.9-5.9,6-10.7,3.6
		c-0.4-7.1-5.4-7.2-10.6-7.1C326,180.3,329.5,177.9,333,175.5z"/>
	<path class="st85" d="M236.3,243.5c1.3-3.4,2.7-6.9,4-10.3c2.6-3.7,3.7-9.3,10.3-7.9c1.2,1.3,2.5,2.6,3.7,3.9
		c2,1.9,2.4,4.2,1.3,6.7c-3.4,3.1-5.7,6.9-7.8,11.1c-2.6,5.1-6.9,7.9-12.6,3.4C234.2,247.9,234.6,245.6,236.3,243.5z"/>
	<path class="st88" d="M404.5,150.4c2.6-4.1,6.8-3.5,10.7-3.6C413.7,154.4,410.3,156.1,404.5,150.4z"/>
	<path class="st89" d="M254.4,236.3c0-2.4-0.1-4.8-0.1-7.1c1.6-2.8,4.2-3.5,7.2-3.6c0,3.9,0.5,8.1-3.5,10.7
		C256.7,237.8,255.5,237.9,254.4,236.3z"/>
	<path class="st19" d="M250.6,225.3c-3.4,2.6-6.8,5.3-10.3,7.9c-0.1-2.5-0.2-5-0.2-7.6c3.6-2.4,7.2-4.7,10.9-7.1
		C250.8,220.7,250.7,223,250.6,225.3z"/>
	<path class="st90" d="M557.9,219c1.1,2.2,2.2,4.5,3.3,6.7c4.2,5.2,4.4,12.2,7.7,17.8c0,0,0,0,0,0c12,38.8,6.6,78.7,7.5,118.2
		c0.5,22.9-0.9,45.9,6.7,68.1c-2.1,11,5,20.9,3.8,31.8c-9.4,0.8-8.3-7-8.7-12c-0.8-10.8-4.7-20.2-11.6-28.7
		c10,14.8,11.8,32.3,17.2,48.6c-3,4.8-7.1,6-12.3,4.1c-14.6-16-13.8-37-18.4-56.3c-0.2-36.2,0.1-72.4-0.1-108.6
		c-0.2-27.8-6.7-53.9-20.6-78.1c-6.1-10.8-17-18.4-20.3-31c1.3-7.6,1.3-16.5,13.3-13.4c1.4,1.1,2.8,2.3,4.1,3.4
		C541.7,197,547.2,210.5,557.9,219z"/>
	<path class="st91" d="M225.7,383c-2.4,0-4.7,0-7.1,0c-7.1-22.4-2.9-45.3-2.7-67.9c0.1-5.1,3.2-10.2,9.8-10.7
		c10.6,20.1,3.1,41.6,5,62.4C231.2,372.4,230.8,378.6,225.7,383z"/>
	<path class="st54" d="M225.7,383c0-26.2,0-52.5,0-78.7c0.1-5.9,0.1-11.7,0.2-17.6c2.2-1.3,4.1-0.9,5.6,1.2c1.2,1.9,2.1,3.9,2.6,6.1
		c2.9,43.4,0.3,86.8,0.1,130.2c0,6.7-2.4,12.8-6.1,18.4c-1.7,1.9-3.7,2.3-6,1.2C222.4,423.4,228.4,403.5,225.7,383z"/>
	<path class="st92" d="M229.2,286.1c-1.1,0.1-2.2,0.3-3.3,0.6c2.1-14.7-4.9-31.7,10.4-43.2c0.1,2.4,0.1,4.7,0.2,7.1
		c3.2,6.2,0.8,12.3-0.3,18.4C233.7,274.7,234.9,281.8,229.2,286.1z"/>
	<path class="st0" d="M236.5,218.4c3.7,2.4,0.4,4.8,0,7.2c-2.6,4.1-6.8,3.5-10.7,3.6C226.6,222.8,222.7,211.8,236.5,218.4z"/>
	<path class="st49" d="M525.6,186.3c-8.4,1.6-9.1,8.5-10.5,15c-10.6,2.3-15.8-7.6-24.1-10.6c-4.5-2.5-9.3-4.8-8.5-11.2
		c5.1-5.6,16.8,0,18.6-11.1C509.9,173.3,520.9,175.6,525.6,186.3z"/>
	<path class="st93" d="M501.1,168.3c-19,2.4-33.1-10.2-49.2-16.5c-7.8-3-0.5-10.4-0.8-15.8c3.2,9.8,10.5,14.3,19.9,17.7
		C481.5,157.4,492.9,159.8,501.1,168.3z"/>
	<path class="st94" d="M443.8,114.7c-2.3-1.3-4.6-2.6-6.9-3.8c-0.1-1.1-0.3-2.2-0.6-3.3c0.1-1.1,0.2-2.3,0-3.4
		c3-0.3,5.8-0.9,7.5-3.8C455.8,105.1,439.6,109.9,443.8,114.7z"/>
	<path class="st86" d="M451.2,136c-13.4-1.3,0.3-10-3.8-13.9C452.5,125.7,450.9,131.1,451.2,136z"/>
	<path class="st95" d="M583.3,468.8c-0.8-0.9-2-1.7-2.2-2.7c-4.5-19.9-17.6-37.2-17.7-58.5c7.9,11.2,14.7,22.9,16.2,36.8
		c0.7,6.7,1.9,12.8,7.4,17.3c-0.1,5.4,1.3,10.2,5,14.3c0.7,1.2,1.4,2.4,2.1,3.6c2.4,5,6.8,9.2,5.2,15.5
		c-11.1,10.4-11.6-2.5-15.8-7.2C580.7,481.6,578.5,475.2,583.3,468.8z"/>
	<path class="st96" d="M433.5,139.7c-5.3,5.4-12,3.1-18.2,3.4c-3.6-7-16.7,1.8-17.4-10.9c-0.7-12.8,2.3-20.6,17.2-17.4
		c3.5,2.4,7,4.8,10.5,7.2c1.7,0.8,3.8,1.1,3.4,3.7C430.5,130.5,432,135.1,433.5,139.7z"/>
	<path class="st97" d="M428.9,125.8c-1.1-1.3-2.3-2.5-3.4-3.8c5-2.2,3.2-11.4,11-10.8C433.3,115.8,434.2,122.4,428.9,125.8z"/>
	<path class="st44" d="M415.2,111.4c-7.1-0.1-14.2-0.2-21.4-0.3C401,105.9,408.1,105.4,415.2,111.4z"/>
	<path class="st98" d="M232.4,268.3c-0.1-6.2,0.2-12.3,4.1-17.7c4.9-0.5,9.2-1.5,8.5-8.1c-0.8-7.7,5.2-5.7,9.4-6.2
		c1.2,0,2.4,0,3.5,0c-2.4,4.5-4,9.1-3.7,14.3c-11.2,44-2,89-7.1,133.3c-2.7,5.9-6.7,11.4-5.6,18.5c-2.3,13.5,5.2,26.4,2.4,39.9
		c-0.5,1.8-1.5,3.4-2.7,4.8c-10-0.2-5.2-6.5-6.1-9.8c-3.7,6.6,4.3,14.3,1.7,22.2c-0.5,1.8-1.3,3.5-2.5,5c-1.5,1.4-3.2,1.6-5.1,0.6
		c-0.1-2.9-0.8-5.6-3.6-7.2c-4.5-4.8-3-9.5,0-14.3c7.7-51.1,1.7-102.6,3.7-153.8C232.9,283.1,230,275.3,232.4,268.3z"/>
	<path class="st49" d="M182.8,561.8c0-1.2,0-2.4,0-3.6c3.3-7.1,6.7-14.2,14.1-18.1c0.5,0.6,1.1,1.2,1.6,1.9
		c-1.9,10.6,2.2,15.8,13.3,16.3c5.6,0.3,11.2,2.3,17,2.4c10.9,2.1,22,2.8,32.9,4.7c4.8,3.6,15.4,0.7,13.3,11.9
		c-11.9,7.6-24.4,2.4-35.9-0.1C220.2,573.3,199.2,575.6,182.8,561.8z"/>
	<path class="st54" d="M211.3,518.8c-0.9-12.4,1.6-23,14.3-28.7c0.5,0.6,1.1,1.2,1.6,1.7c1.9,5.8-0.7,11-2.4,16.3
		c-2.5,5.1-4.8,10.4-11.3,11.6C212.8,519.5,212,519.1,211.3,518.8z"/>
	<path class="st49" d="M197,540.2c1.8-9.1,6-16.7,14.4-21.4c0,0,0.5,0.4,0.5,0.4c3.1,12.5-1.5,19.7-14.4,21.4L197,540.2z"/>
	<path class="st54" d="M232.9,465.2c0-1.2,0-2.4,0-3.6c1.7-1.3,3.3-1.2,4.8,0.3c2.2,3.3,2.3,6.8,1.6,10.5c-3.2,6.9-2.2,16.9-13.2,18
		c0,0-0.4-0.4-0.4-0.4c0-3.5,0.1-7.1,0.2-10.6C229,475.2,226.1,467.8,232.9,465.2z"/>
	<path class="st99" d="M225.7,443.8c0,4.8,0,9.5,0,14.3c-1.7,2.8-4.4,3.5-7.4,3.4c-0.3-6.2,0-12.4,3.7-17.7
		C223.3,443.8,224.5,443.8,225.7,443.8z"/>
	<path class="st99" d="M232.9,465.2c-2.4,4.8-4.8,9.5-7.1,14.3c0.4-5-1.5-10.5,3.6-14.3C230.5,465.2,231.7,465.2,232.9,465.2z"/>
	<path class="st100" d="M422.3,93.5c-5-0.4-10.5,0.9-14.4-3.7C413.9,86.1,419.2,85.3,422.3,93.5z"/>
	<path class="st42" d="M300.8,597.6c-14.2-1.2-28.5-2.5-42.7-3.7c-22.7-4.8-45.5-9.7-68.2-14.5c-1.1-2-0.8-3.8,0.9-5.4
		c6.2-4.3,12.8-6,20.1-3.1c22.9,8.9,47.3,10.9,71.3,14.5C290.1,586.6,299.8,585.8,300.8,597.6z"/>
	<path class="st101" d="M218.6,594c-4.8,0-9.5,0-14.3,0c-1.2-2.4-2.4-4.7-3.5-7.1c7.5-1.2,14.3,2.3,21.4,3.6
		C220.9,591.7,219.7,592.9,218.6,594z"/>
	<path class="st49" d="M190,576.1c0,1.1,0,2.2,0,3.3c-5.1,0.1-10.4,1.3-14.6-3.1c3.7-1.3,7.3-2.5,11-3.8
		C188.4,572.9,189.6,574.1,190,576.1z"/>
	<path class="st102" d="M586.9,486.7c5.4-0.3,1,14.1,10.7,7.2c1.2-1.2,2.7-1.6,4.4-1.2c7,2.9,6.9,10.2,9.9,15.7
		c3.4,6.9,6.3,14.1,13.6,17.9c1.6,6.4,5.4,11,11.2,14.2c0.6,5.6,4.3,9.1,8.1,12.7c7.4,6.9,8.9,14.4,2.3,22.7
		c-6.1-0.2-12.1,0-17.2,3.9c-13.7,2-27.1,5.9-41.1,5.4c-2.3-0.1-4.7,0.2-7-0.4c-5.6-1.5-12.7-2.3-12.5-9.8c0.2-6.6,7.3-6.3,11.9-8.4
		c7.6-3.4,16.5-0.6,23.7-5.5c7-3.3,13.4-6.8,5.3-15.3c-4-6.7-8.7-12.8-14-18.6c-0.9-1.3-1.6-2.8-2.1-4.2c-1.6-8.9-7.5-15.6-12-23
		c-0.8-1.5-1.3-3.1-1.6-4.8C580.8,490.9,580,485.8,586.9,486.7z"/>
	<path class="st32" d="M611.8,508.4c-3.6-4.8-7.2-9.7-10.7-14.5c-1.7-3.4-5.8-6.1-3-10.8C609.3,487.9,612.6,497,611.8,508.4z"/>
	<path class="st103" d="M598.1,483.1c1,3.6,2,7.2,3,10.8c-1.2,0-2.3,0-3.5,0c-2.4-4.5-4.1-9.1-3.6-14.3
		C595.4,480.7,596.7,481.9,598.1,483.1z"/>
	<path class="st104" d="M190,576.1c-1.2-1.2-2.4-2.4-3.6-3.6c-1.2-3.6-2.4-7.2-3.6-10.7c31.1,5.5,61.8,13.8,93.7,13.9
		c8-6.8,16.5-4.6,25.1-1.4c6.1,5.9,17.1,1.9,21.8,10.7c0.4,6.4-2.6,10.9-7.9,14.1c-2.9,0.8-5.6,0.5-8.1-1.4
		c-2.2-0.1-4.4-0.1-6.6-0.2c-11.5-12.8-27.9-5.8-41.8-9.9c-16-4.8-33.6-3.9-48.6-13.3C203.5,570.1,197,577.7,190,576.1z"/>
	<path class="st31" d="M568.9,243.5c-5.4-4.7-6.7-11.2-7.7-17.8C567.9,229.9,569.1,236.4,568.9,243.5z"/>
	<path class="st105" d="M429.3,633.3c-3.5,1.2-7,2.4-10.5,3.7c-6,3-12.2,1.9-18.4,0.8c-11.7-18-5-33,15.3-34.4
		c8.8-0.6,17.8,1,26.4-2.1c2.8-0.8,5.7-1.2,8.6-1.1c5.8,0.1,12.3-0.4,15.3,5.8c3,6.3-1,11-5.5,15.1c-0.9,0.4-1.9,0.8-2.9,1.2
		c-3.4,1.3-6.9,2.6-10.3,3.9C442.4,631.2,435.3,630.8,429.3,633.3z"/>
	<path class="st69" d="M401,636.8c5.9,0.1,11.8,0.1,17.8,0.2c-7.6,6.7-16.7,2.3-25,3.6c-1.2,1.8-2.4,1.8-3.6,0
		c-3.6-2.4-7.2-4.7-10.8-7.1C388,625.5,394.3,632.8,401,636.8z"/>
	<path class="st106" d="M465.3,633.5c-1.1,0.2-2.2,0.4-3.3,0.7c-1.4-3.9-2.8-7.9-4.3-11.8c0,0,0.1,0,0.1,0
		c4.8-3.2,10.5-5.1,13.9,0.5C475.2,628.5,468.3,630.4,465.3,633.5z"/>
	<path class="st70" d="M429.3,633.3c5.4-4.1,11.7-5.6,18.1-7.1C443.7,634.5,436.3,633.4,429.3,633.3z"/>
	<path class="st107" d="M390.2,640.5c1.2,0,2.4,0,3.6,0c0,4.7,0,9.4,0,14.2c-3,0-5.6-0.6-7.2-3.4
		C390.7,648.7,390.1,644.5,390.2,640.5z"/>
	<path class="st108" d="M401,636.8c-7.2-0.9-14-4.8-21.6-3.3c-3.9-0.2-8.1,0.3-10.8-3.6c-9.4-3-17.8-7.5-24.6-14.8
		c-4.2-4.5-8.2-8.9-0.2-13.6c29.7-2.5,59.5-0.7,89.2-1.3c4.2-0.1,8.1,1.2,10.8,4.8c-6.5,6-14.5,3.2-21.7,3.4
		C399.8,608.7,396.1,613.4,401,636.8z"/>
	<path class="st109" d="M340.2,604.9c6.2,12.1,19.8,15.7,28.5,24.9c-15.9,6.6-21.6-14.4-38.4-13.8c6.6,8,11.8,14.4,17,20.8
		c-1.1,0.1-2.3,0.1-3.4,0.1c-15.6-8.3-22.2-25.6-35.8-35.8c-0.1-1.1-0.3-2.2-0.6-3.2c2.6-0.1,5.2-0.2,7.8-0.3
		c6.2-0.8,7.9-8.7,14.3-9.2c7.1,0.9,12.5,4.2,15.2,11.1C344.6,602.5,341.9,603.2,340.2,604.9z"/>
	<path class="st76" d="M329.4,636.9c-8.4,1.3-11.7-4.3-14.3-10.7C324.5,623.7,326.4,631.1,329.4,636.9z"/>
	<path class="st110" d="M343.7,601.2c-4.8-3.6-9.6-7.1-14.3-10.7c-1.1-2.1-0.7-3.9,1.1-5.3c12.5-4.7,24.9-5.3,37.3,0.6
		c1.2,1.4,1.8,3.3,0.5,4.6c-2.7,3-6.1,1.5-7.9,1.8c5.6,4,8.8-3.9,13.9-5.6c30.7-1.2,61.4-2.4,92.1-4.5c11.9-0.8,23.6-1.4,34.8-5.7
		c14.4-6.9,30.6-5.9,45.5-10.8c3.8-0.9,7.6-1.5,11.5-1.8c15.2-1.4,30.2-5.8,45.7-4.9c1.9,0.7,3.4,1.9,4.5,3.6
		c-8.9,13.7-26,2.2-36.2,12.8c2.5,6.2,9.1,6.8,15.2,8.3c0.9,1,1.1,1.8,0.6,2.4c-0.5,0.6-0.9,0.8-1.3,0.8c-7.1,0.9-14.8-1.7-21.2,3.4
		c-21.3,2.5-42.6,5-64,7.6c-4.8,2.1-10.3,3-13,8.4c-2.5,4.9-6.7,4.4-10.7,2.7c-27-11.6-55.2-4-82.8-5.5
		C377.8,602.5,360.7,604.4,343.7,601.2z"/>
	<path class="st111" d="M343.7,601.2c42.8-0.2,85.8-2.5,128.3,1c11.7,1,19.4-5.8,29.4-4.4c-12.8,9.2-17.6,25-29.3,35.2
		c-2.3,0.2-4.6,0.3-6.8,0.5c9.4-11.7,0.4-11-7.5-11.1c2-4.8,3.9-9.6,6.3-15.4c-6.4-4.2-13.6-1.5-20.3-2.1c-34.6,0-69.2,0-103.7,0
		C341.4,603.6,342.5,602.4,343.7,601.2z"/>
	<path class="st41" d="M586.5,586.7c0.2-1.1,0.4-2.2,0.8-3.3c14.4,0.8,28-6,42.5-3.8c-5.8,6.4-15.3,1.8-21.5,7.2
		C601.1,586.8,593.8,586.8,586.5,586.7z"/>
	<path class="st112" d="M290.1,232.8c6-2,9.9-6.6,14.2-10.8c0.6,0.6,1.2,1.3,1.7,1.9c1.1,2.5,1.1,4.9,0.3,7.5
		c-7.4,17.1-22.4,30.3-25.5,49.6c-0.4,3.3-1.2,6.5-2,9.7c-2.1,5.5-1.9,11.3-1.9,17c0.4,7.6-1,15.4,2,23.3c3.5-6.2,8.7-10.1,13-14.8
		c5.7-6.2,11.9-4.6,17,0.9c7.9,8.4,12.4,8.5,22.2,0.9c5.5-4.3,7.2-12.8,15.4-14.2c7.5-1.4,15.1-4.3,22.3,1.1
		c7.6,11.6,3.1,21.7-3.8,31.5c-1.1,1.3-2.3,2.5-3.6,3.6c-5.1,3.9-11,4.7-17.1,4.9c-12.1-0.1-24.3-0.1-36.6-0.4
		c-0.3,4.8,4.4,4.7,6.5,6.9c6,4.5,13.1,4.8,20.1,5.9c5.5,0.9,13.1,1.7,7.7,10.8c-10.2,9.6-23.3,10-32.9,2.9
		c-13.7-10.1-25.8-7-39.1-2.1c-2.8,1-3.6-2.4-4.9-4.3c-1.6-33.9-5.9-68,5.4-101.2c2.2-7,4.7-13.7,12.5-16.4
		C287.6,243.4,289.5,238.4,290.1,232.8L290.1,232.8z"/>
	<path class="st113" d="M282.9,247c-2.4,4.8-4.8,9.5-7.2,14.3c-6.7,2.3-0.7,15.5-11.9,14c-2.5-2.9-3.4-6.4-3.7-10.1
		c0.1-6.3-1.8-12.7,1-18.8c1.7-9.2,6.8-16.2,14.2-21.7C269.5,235,280.1,239.7,282.9,247z"/>
	<path class="st114" d="M333,189.8c3.6-1.2,7.1-2.4,10.7-3.6c3.6-1.2,7.2-2.4,10.8-3.6c1.6,9.8-8.1,11.8-12.2,17.7
		c-10.8,10.4-19.6,24.4-37.8,21.7c0,0,0,0,0,0C311.1,208.8,327,203.7,333,189.8z"/>
	<path class="st113" d="M290.1,232.8c-3.3,1.2-7.6,3.4-9-1.2c-2.3-8,5.1-10.5,10.4-15.1C293.9,222.7,284.5,227.2,290.1,232.8
		C290.1,232.8,290.1,232.8,290.1,232.8z"/>
	<path class="st115" d="M482.5,179.4c2.8,4,6.9,6.1,11.4,7.6c1.1,1.4,0.9,2.7-0.2,4c-7.8,4.7-14.8-3.1-22.5-1.4
		c-9.2-1.3-18.3-6.2-27.5-0.1c-8.1-1.9-15.5-7.4-24.4-5c-6.1-3.9-11.6-4.5-16.2,2.3c-1.3,1.1-2.8,1.9-4.4,2.5
		c-12.2,0-26,5.1-33.5-10.2c-2.5-5.6,0.4-6.3,5.3-7.6c24.4-6.4,49.2-1.4,73.7-3.3c7.6-2.5,14.3,0.7,21,3.4
		C470.8,174.6,475.6,179.2,482.5,179.4z"/>
	<path class="st93" d="M465.2,171.6c-7.4,1.4-14-2.3-21-3.4c-0.2-1.1-0.5-2.2-0.8-3.2c1.4-0.1,2.7-0.2,4.1-0.3
		C454.2,164.9,461.5,163.7,465.2,171.6z"/>
	<path class="st116" d="M365.1,179c10.9,7.5,23.5,6.5,35.8,7.2c1.9,5.1-2,7.5-4.8,10.4c-2.5,2.6-2.9,5.5,0.4,7.2
		c10.4,5.4,19.6,13.5,31.5,16c8.4,1.8,15.1-1.4,20.2-8c5.2-6.8,1.3-12.1-2.7-17.5c-1.8-2.4-3.3-4.9-1.7-8.1c9.5-13.1,19.1,0,28.6,0
		c22.2,11.3,22.7,15.5,2.9,35.4c19.1,3.3,24.1,15.9,24.8,32.9c0.4,10.1,1.7,24,18.6,12.7c4.2-2.8,9.1-1.7,13.2,1.6
		c9.4,7.6,9.2,31.2-0.3,40.6c-4.3,0.7-8.6-0.4-12.9-0.2c-6-0.4-11.9,0.3-17,3.7c-16.6,11-34.7,8.1-52.7,6.1
		c-5-3.1-10.1-6.1-16.2-2.6c-1.3,0.6-2.6,1.2-3.8,1.8c-2.4,1.3-4.7,2.5-5.2,5.6c-0.2,2.1-0.2,4.2,0,6.3c0.6,4.5,1.9,8.9,1.3,13.5
		c-1.6,6.3,0,12.3,1.7,18.2c0.4,11.7,8.4,14.3,17.9,14.1c7.6-0.1,15.2-0.1,21.5-0.3c-7.9-3.7-21,7-27.3-7.6c1-4.3,4.1-5.5,8-5.8
		c6.4,0.7,12.8,1,19.3,1.1c5.6,0.3,11.3,0.1,16.9,0.3c3.8,0.1,7.4,0.7,10.8,2.4c7.8,6.7,15.9,8.7,26.2,4.4
		c16.5-6.9,28.3-0.2,23.6,16.3c-6.5,22.8,8.9,45.6-3.7,67.3c-2.8,4.8,1.1,9,4.8,12.2c2,2.5,3.2,5.5,4.3,8.5c2.4,5.1,8,5.9,11.9,9.1
		c3.6,5,9.8-0.2,13.7,3.6c13.4,19.8,8.2,39.5-0.1,59.3c-5.7,5.5-11.8,3.1-18.3,1.7c-14.6-3.2-29.7-8.9-42.4,5.4
		c-3.7,4.2-9.6,3.1-12.6-1.1c-8.7-12.5-21.3-10.9-33.7-10.9c-8.3,0-16.6,0-24.9,0.1c-8.3,0-15.4,2.2-19,10.3
		c-5.5,12.2-15.8,14.8-27.8,14.7c-10.1-0.1-20.2,0.4-30.2-0.1c-10.7-0.5-17.4,6.3-25.1,11.7c-11.6,4-22.9,1.6-34.1-1.9
		c-5.1-4-11.1-6.8-16.6-10.3c-5-3.2-11.3-6.8-10.1-13.4c1.3-7.5,9.6-5,17.3-8c-13.6-0.8-24-4.4-34.5-8.4
		c-15.4-5.9-19.1-11.1-9.7-25.1c6.8-10.2,6.8-19.4,4.3-30c-0.3-6.6,0.4-12.9,3.6-18.8c7.9-19.7,12.8-39.4,10.9-61.3
		c-1.9-21.6,3.5-25.5,25.3-26.7c14.1-0.7,28.2,0.7,42.2-1.1c19.7,3.6,25.8,0.3,32.6-19.5c2.5-7.1,5.4-14.5,3-22.4
		c-0.7-1.4-1.1-2.9-1.5-4.4c-4.4-5.9,7.4-15.2-4.1-19.7c-7.2-5.7-14.3,1.1-21.5,0c-7.3-3.8-8.9-10.7-9.2-18c-1-24.8,0.5-49.6-3-74.4
		c-0.9-6.3,1.6-12.8,5-18.6c4.8-4.8,9.5-9.5,14.3-14.3C358,181.4,361.6,180.2,365.1,179z"/>
	<path class="st117" d="M261.2,246.4c1.3,6.2,2.6,12.3,3.8,18.5c-9.2,8.4-6.8,20.2-6.5,29.9c1,33.6,2.5,67.1-2.5,100.5
		c-2,5.1,0.2,14-10.3,11.6c-7.5-9.7,0-19.5-0.2-29.3c-0.5-24.4,0.3-48.8-0.3-73.2c-0.4-17.5,2.1-34.1,9.2-50.1
		C256.7,251.8,259,249.1,261.2,246.4z"/>
	<path class="st118" d="M254.4,254.4c-12.2,50.7-5.6,102.3-7.2,153.5c5.1,4.9,4.5,10.9,3.7,17.1c-3.6,6.4,0.1,16.8-10.7,19.2
		c0.5-14.6-6-28.6-3.8-43.4c1.6-1.2,3.1-1,4.5,0.2c1.6,4.7,0.3,9.6,1.3,16.3c-0.3-9.3-0.8-16.6-2-23.7c0.2-2.8,1.4-5.1,3.2-7.1
		c0-34.8-0.4-69.6,0.2-104.4c0.2-11.2,4.4-21.8,10.5-31.5C254.3,251.9,254.4,253.2,254.4,254.4z"/>
	<path class="st119" d="M533.3,225.5c18.4,21.3,23.4,47.6,24.3,74.2c1.4,39.7,0.3,79.4,0.3,119.1c-2.2,0.4-4.1-0.2-5.7-1.6
		c-5.9-6.1-5.5-14.1-5.9-21.7c-1.6-30.7-0.9-61.5-0.7-92.2c0.2-19.9-2.2-38.9-11.5-56.7c-3-5.8-5.5-11.9-2.9-18.7
		C532,227,532.7,226.2,533.3,225.5z"/>
	<path class="st120" d="M493.8,189.8c0-0.9,0-1.9,0-2.8c7.1,4.8,14.2,9.5,21.2,14.3c5.9,8.2,14.8,14.1,18.3,24.2
		c0,0-0.5,0.5-0.5,0.5c-9,4.4-14.1-5.3-21.6-6.1c-4.2-2.5-8.6-4.8-12.2-8.3C494.7,204.9,490.5,198.3,493.8,189.8z"/>
	<path class="st121" d="M554.7,418.7c1.1,0,2.2,0,3.3,0c4.2,18.1,6.7,36.5,14.4,53.7c3,3.1,3.4,6.6,1.2,10.3
		c-6.4,2.9-8-2.5-10.7-6.1c-2.1-8.9-7.4-16.8-9.1-25.8c0.9-10.1-5.4-19.9-1.1-30.1C553.3,420,554,419.4,554.7,418.7z"/>
	<path class="st103" d="M573.3,483c-0.3-3.5-0.6-7.1-0.9-10.6c3.6-1.2,7.3-2.4,10.9-3.6c1.2,6,2.4,11.9,3.6,17.9
		c-4.1,2.7-3.4,6.9-3.7,10.9c-6.7,1.3-6.5-4.5-8.3-8.2C574.4,487.3,573.5,485.2,573.3,483z"/>
	<path class="st118" d="M232.4,268.3c2.4,7.7,1.6,15-3,21.7c-0.1-1.3-0.2-2.5-0.2-3.8C229.5,280,227.4,273.5,232.4,268.3z"/>
	<path class="st122" d="M240.2,444.2c2.2-6.3,4.5-12.6,6.7-18.9c8.8,9.8,5.2,21.5,5.1,32.7c-0.3,2-0.9,4-1.6,5.9
		c-2.3,4.8-5.8,8.3-11.3,9.2c-1-0.3-1.9-0.6-2.9-0.9c0.1-3.5,0.2-7.1,0.3-10.6c-1.5-5.4-0.4-10.2,3.5-14.3
		C240.3,446.3,240.4,445.3,240.2,444.2z"/>
	<path class="st99" d="M240.1,447.4c0.6,5.2-0.9,9.9-3.5,14.3c-1.2,0-2.5,0-3.7,0c0-9.2,0-18.4,0-29.3
		C238.8,436.9,234.2,444.7,240.1,447.4z"/>
	<path class="st99" d="M243.5,386.5c0,2.4,0,4.8,0,7.2c-2.4,1.8-1,5.4-3.5,7.1c-1.2,0-2.4,0-3.6,0
		C237.1,395.2,234.2,387.9,243.5,386.5z"/>
	<path class="st123" d="M304.4,572.5c11.6,4.3,23.7,3.7,35.8,3.6c7.7-4.9,16.2-3.1,24.2-2c43.8,6.4,86.9-1.2,130.1-6.2
		c8.4-1.3,17.3,1.6,25.2-3.4c5.3-2.8,10.9-4,16.8-3c4.9,1.1,9.4,2.9,11.8,7.8c-13.6,7.2-29.7,4-43.6,10.2
		c-68,12-135.9,10.5-203.8-0.2c-7.5-5.2-16.1-3.2-24.3-3.6c-5.2-2.2-10.5-4.3-15.7-6.5c4.8-5.7,11.1-5,17.5-4.4
		C287,567.3,296.3,567.9,304.4,572.5z"/>
	<path class="st124" d="M197.4,540.6c8.2-4.8,12.2-12.5,14.4-21.4c3.3-3.7,6.7-7.5,10-11.2c2.2-1.9,4.6-2.2,7.3-1.1
		c6.9,11.4-0.1,20.9-4.1,30.8c-3.5,2-7.1,3.8-10.3,6.2c-1.2,0.9-2.8,1.3-3.2,3c1.3-1.2,2.9-1.7,4.6-2c7.8,0.4,10.1,6.1,11.8,12.3
		c0.4,2.8-0.1,5.4-2.1,7.5c-6.1,1.9-11.3-2.4-16.9-2.5C191.7,561.9,188.5,554.7,197.4,540.6z"/>
	<path class="st115" d="M225.9,564.7c0-2.1-0.1-4.2-0.1-6.4c3.7-7.1,4.3-16.7,14.8-18.3c7.2,8.5,13.4,16.7,27.7,13.1
		c10.5-2.6,13.7,6.1,11.1,15.9c-6.2,0.1-12.3,0.2-18.5,0.3C248.8,570.6,237.3,568.2,225.9,564.7z"/>
	<path class="st122" d="M229.3,508.2c-2.5,0-5-0.1-7.5-0.1c1.4-5.8,2.8-11.7,4.2-17.5c3.4-6.1,6.8-12.1,10.3-18.2
		c0,0,0.4,0.3,0.4,0.3c4.7,3.1,7.7,7.6,9.1,12.7c1.7,5.9,7.6,14.7-7.1,12.2C231.9,496.4,234.5,506.3,229.3,508.2z"/>
	<path class="st125" d="M575.7,486.7c2.5,3.6,4.9,7.3,7.4,10.9c0,0,0-0.1,0-0.1c5.6,8.1,10.3,16.7,14.2,25.7c-0.2,1-0.1,1.9,0.3,2.9
		c3.8,2.1,5.6,5.8,6.9,9.7c2,6.6,7,11.1,11.8,15.6c2.4,11.2-6.1,8-11.6,8.7c-10-1.3-19,4.9-29,3.6c-13.2-4.6,3.1-13.9-3.2-19.6
		c6.6-19.1,6.1-38.1,0-57.2C573.6,485.4,574.6,485.3,575.7,486.7z"/>
	<path class="st103" d="M597.3,523.2c-7.5-7-12.1-15.7-14.2-25.7C591.3,504.1,598,511.6,597.3,523.2z"/>
	<path class="st126" d="M605.1,558.5c3.9-1.1,12.6,2.4,7.2-7.6c-2.2-1.5-2.5-3.5-1.9-5.9c0.6-0.5,1.1-1,1.7-1.5
		c3.9,3.4,9.9,6,8.9,12.1c-1.1,6.9-7.7,6-12.8,6.8c-1.2-0.2-2.5-0.4-3.7-0.6c-1.2-0.9-1.5-1.7-0.9-2.4
		C604.2,558.8,604.6,558.5,605.1,558.5z"/>
	<path class="st127" d="M601.4,536.4c-1.3-3.4-2.6-6.9-3.8-10.3c9,2.4,11.7,10,14.6,17.5c0,0-0.7,0.9-0.7,0.9
		C605.2,545.3,604,540,601.4,536.4z"/>
	<path class="st128" d="M300.9,579.4c27.1,2.1,54.3,4.1,81.4,6.4c29.2,2.5,58.1-1,87-3.8c11.8-1.1,23.6-2,35.4-2.5
		c-7.5,5.1-16.1,7.1-24.8,7.1c-37.1,0.3-73.9,6.2-111.1,3.7c-12.6-7.5-26.3-1.8-39.4-3.6c-2.4,2-4.8,2.3-7.1,0
		C316.8,579.4,306.1,587.3,300.9,579.4z"/>
	<path class="st129" d="M322.3,586.8c2.4,0,4.7,0,7.1,0c0,1.2,0,2.4,0,3.6c-4.6,2.6-5.5,12.7-14.2,7.1
		C317.6,594,319.9,590.4,322.3,586.8z"/>
	<path class="st125" d="M548.3,569.3c-3.8-1.3-7.6-2.6-11.5-3.9c-8.4-6.3-9.5-12,1.4-16.7c5.6,0.1,11.1,1.2,16.6,1.7
		c5.8,1.2,10.1,4.3,11.9,10.2c1.1,6.7-5.5,5.6-8.4,8.4C554.9,569.1,551.6,569.2,548.3,569.3z"/>
	<path class="st130" d="M558.3,569c2.4-2.4,4.8-4.8,7.2-7.1c2.4-1.9,4.7-2.2,7.1,0c11.1,1.1,21.4-5.7,32.6-3.3
		c-0.2,1.1-0.4,2.2-0.5,3.3C589.2,564.1,573.7,566.6,558.3,569z"/>
	<path class="st131" d="M367.8,593.6c-3.6,4.6-8.3-0.6-13-2.3c4.1-0.3,8.2-0.4,12.2-0.9C368.9,590.2,369.3,590.4,367.8,593.6z"/>
	<path class="st132" d="M340.1,197c3.2,33,4.2,66,3.8,99.1c0,3.9,2.2,7.9,3.4,11.8c-12.4,14.4-24.8,28.6-46.9,19.8
		c-0.4-7.4,8.5,0.1,8.4-4.9c-0.1-3.5-3.8-5.9-7.3-6.9c-4.2-1.2-7.3,0.7-7.4,5.1c-0.2,7.1-15.5,5.9-8.9,16.6c0.2,0.4-2.8,3.8-4.7,4.2
		c-2.5,0.6-3.6-1.9-4.7-4.2c-4.5-9.6-3.3-19.8-3.4-29.8c6.7-4.4,6.8-5.5,2.3-13.1c-0.9-1.5-0.1-3.4,1.3-4.8c0-3.6,0-7.2,0-10.7
		c20.9-10.5,30.5-27.3,28.6-50.1c0-2.4,0-4.7,0-7.1C318.4,216.6,330.1,207.9,340.1,197z"/>
	<path class="st133" d="M247.2,461.7c-0.1-12.1-0.2-24.2-0.2-36.3c0.1-5.8,0.2-11.6,0.3-17.4c5-3.8,3-9.4,3.5-14.3
		c11.6-24.3,9.1-49.8,7.7-75.5c-0.8-14.2-2.7-29.4,6.5-42.5c5.1-3.7,3.4-12.4,10.7-14.3c-11.9,35.1-5.6,71.5-7.1,107.3
		c4,3.4,5,8,4.3,12.9c-3.4,22.9-0.1,46.4-6.1,69c-0.7,7-4.3,11.5-11.1,13.6C252.5,464.7,249.7,463.8,247.2,461.7z"/>
	<path class="st134" d="M265,454.5c-2.2-28.8,3.9-57.2,3.7-85.9c4.2-6.6,4-18.7,18-6.9c9.9,8.3,3.5-6.6,7.5-10
		c9.8,21.3,27.9,19.1,46,16.9c0.6,0.6,1.1,1.2,1.7,1.8c1.4,3.4,1,6.4-1.7,9c-19.2,0.3-38.4,0.3-57.6,1.1c-4.6,0.2-6.4,4.9-6.6,9.3
		c-0.2,5.9-1.7,12.4,0.1,17.7c7.3,21.6-6.4,38.7-11,57.7C261.8,461.7,262.6,458.1,265,454.5z"/>
	<path class="st135" d="M304.4,229.1c9,4.9,8.3,12,4.3,19.7c-2.4,4.7-6.7,9-7.5,13.9c-2.4,15.7-12.3,18.3-25.5,16.5
		C281.9,260.6,291.1,243.7,304.4,229.1z"/>
	<path class="st136" d="M311.5,354.3c-3.6-2-7.5-3.7-10.8-6.2c-2.6-1.9-6.8-4-4.1-8.4c1.8-2.9,5-2.3,8-1.4c12.9,3.6,26,0.9,39,1.9
		c-1.9,12-12.6,4-17.6,8.3c11.3-4.6,27.3,4,35.1-12.2c0.2-1,0.3-2,0.5-3c4.6-1.9,8.7-5.4,14.2-3.9l0,0c5.1,16.8-7.1,22.4-18.6,28.4
		C341.9,359,326.3,361.7,311.5,354.3z"/>
	<path class="st137" d="M361.2,336.2c10.2,2.5,3.4,6.2,0.3,8.6c-13,10-28.1,4.3-43.5,6.3c7.1-10,18.9-4.2,25.7-10.9
		C349.7,339.6,355.8,339.6,361.2,336.2z"/>
	<path class="st138" d="M311.5,354.3c15.5,3.7,31,0.4,46.5-0.3c-1.5,10.3-5.5,17.6-17.9,14.7c0,0,0,0,0,0c3.1-7.5-1.8-7.3-6.8-7.1
		C325.2,361.8,317.3,361.4,311.5,354.3z"/>
	<path class="st135" d="M275.8,290c2.4,8.7,20.9,4.2,15.4,20c-6.1-0.8-12.2-5.9-18.9-2.1C273,301.8,270,295,275.8,290z"/>
	<path class="st139" d="M375.9,329.3c-4.7,1.3-9.5,2.6-14.2,3.9c7.9-6.9,5.9-16.6,7.1-25.4c8.9-6.3,8.1,2.6,8.5,6.3
		C377.9,319.1,376.4,324.3,375.9,329.3z"/>
	<path class="st140" d="M265.1,275.6c-0.4,23.5-3.1,46.9-0.1,70.4c2.3,17.8-2.3,33.9-14.2,47.6c8-39.1-0.4-78.7,4.1-117.9
		c0.4-3.3-3.6-17.3,10.1-10.9C265.1,268.5,265.1,272.1,265.1,275.6z"/>
	<path class="st141" d="M558.3,450.9c1.1,8.7,10.1,15.2,7.2,25c-6,1.2-4.1,7.6-7.2,10.7c-4.8-2.4-9.5-4.8-14.3-7.2
		c3.2-3.5,1.2-7.8,1.9-11.6c-0.5,0.4,1.1-3.3-0.7-0.4c0,0-0.5,0.4-1.2,1.3c-15.9-4.4-12.4-14.7-6.7-24.5c2.3-3.9,8.4-7.1,4.3-11.7
		c-11.7-13.1-6.2-26-1.8-39.7c2.5-7.7,0.3-16.5-5.2-21.5c-5-4.5-10.1,3.4-15.3,5.2c-10,3.4-21.1,8.1-25.3-8
		c-6-7.3-4.8-13.2,3.6-17.6c4.6-2.7,9.5-5.2,10-11.5c0.3-3.5-1.9-5.4-4.2-7.2c-2.4-1.9-3.7,0.1-5.7,1.4c-14.9,9.2-30.4,8.9-45.6,1.2
		c-5.9-3-12.1,1.6-17.5-2.1c-4.9-2.5-10.8-0.5-15.6-3.5c0-2.4,0-4.8,0-7.2c2.8-3.5,7.5-4.3,10.7-7.2l0,0c6-4,11.9-2,17.9,0
		c8.4,1.9,20.2-2.2,24-0.9c19,6.4,30.9-12.7,47.6-9.8c3.1,2.7,6.1,5.7,10.7,3.6c5.9-7.4,6-32.1-0.1-36.7c-5.6-4.2-9.9-1.7-13.5,3.3
		c-10.7,14.9-15.1,4.7-18.3-5.2c-2.5-7.8-4.8-15.9-3.9-24.5c1-10.1-3.1-16-14.2-15.6c-5.5,0.2-11.4,0-13.2-6.5
		c-2.3-8.3,5.7-7.5,9.9-9.7c24.2-12.7-0.5-18.1-3.9-26.7c8.2-5.1,13.6,6.4,21.4,3.6c2.4,7.1,4.8,14.3,7.2,21.4
		c3.3,2.8,2.6,11.5,10.7,7.2c10.8-8.1,12.7,8.8,21.1,7.5c0.1,1.2-0.1,2.6,0.4,3.5c24.5,41.3,17,87,17.8,131.5
		c0.3,19.3-0.9,38.8,3.6,57.8c0,0,0,0,0,0C547,430.5,553.3,440.6,558.3,450.9z"/>
	<path class="st142" d="M443.8,186.2c4.4,8.8,21.3,12.8,10,27.5c-10.5,13.6-21.4,15.5-39.1,6.1c-6.8-3.6-13.2-8-20.1-11.3
		c-4.1-2-10.2-1.9-10.1-8.1c0.1-6.2,6.3-5.9,10.3-8c2.4-1.3,4.1-4,6.1-6.1v0c5.1-5.2,11.1-6.4,17.9-3.6
		C428.3,175.8,436.1,180.6,443.8,186.2z"/>
	<path class="st116" d="M418.8,182.6c-6,1.2-11.9,2.4-17.9,3.6C404.8,174.4,410,169.7,418.8,182.6z"/>
	<path class="st141" d="M572.6,561.8c-2.4,0-4.8,0-7.1,0c-3.7-2.3-5.3-7.6-10.7-7.2c-4.3-3.1-9.8-1.4-14.3-3.6
		c-11.5,2.2-5.6,8.7-3.6,14.3c-5,0.4-10.5-1.5-14.3,3.6c-8.4,1-17.2-1.6-25,3.6c-52.3,8.5-104.6,14.9-157.3,3.6
		c3.6-11.3,11.2-15.6,23-14.5c9.4,0.9,19-0.3,28.4,0.3c14,1,26,0.3,29.1-17.4c1.2-7,7.6-7.9,14.1-7.9c16,0.2,32,0.1,48,0
		c8.9-0.1,18.3-1.6,19.5,11.7c0.3,2.9,3.2,5.3,6.5,4.8c4-0.6,6.6-3.7,6-7.5c-1.8-12.1,4.4-7.6,11.3-7.1c15.6,1,30.5,7.9,46.5,5.3
		c7.5,1.2,12.5,2.9,3.3,10C573.9,555.5,573.6,559.1,572.6,561.8z"/>
	<path class="st143" d="M279.4,569c-4.2-6.5-4.5-23.8-17.5-5.7c-2.4,3.3-20.8-15.1-21.8-22.9c-4.3-10.6,3.3-18.8,5.8-28.1
		c2-7.3,4.6-14.4,5.1-22c2-4.7,4.4-8.7,10.5-7.2c3.6,10.4,4.3,19.3-4.4,29.1c-9.1,10.2-5.2,10.7,5.6,17.3
		c11.8,7.2,21.6,12.5,35.6,8.3c5.3-1.6,6.1,4.2,6,8.5c0,4.9-1.6,8.2-7.5,6.3c-4.5-1.5-9.1-2.3-14.7-0.2c2.9,12,18.4,9.9,22.3,20.1
		C296.1,571.2,286.9,575.7,279.4,569z"/>
	<path class="st112" d="M340.1,368.7c8.2-2.2,11.6-10.1,17.9-14.7c7.5-7.1,19.5-11,17.9-24.7c13.5,7.2,1.4,16.2,0.6,23.4
		c-2.6,23.8-14.1,31.3-36.3,26.7C340.1,375.8,340.1,372.2,340.1,368.7z"/>
	<path class="st144" d="M397.2,415c-1.9-3.7-5.6-4.9-15.4-4.2c1.5-6.3,5.1-9.2,10.7-9.7c6.5-0.6,6.5-2.9,3.3-7.8
		c-2.9-4.5-6.5-11.1,3.7-10c6,0.6,16.3-6.3,17.5,7c0.5,5.8,3.3,13.7,0.6,17.2c-7.1,8.9,1.4,10.6,4.8,14.8c-1.1,1.2-2.4,2.1-4,2.7
		c-7.9,0.6-13.8-4-19.9-7.9C398.1,416.3,397.7,415.6,397.2,415z"/>
	<path class="st145" d="M440.3,368.7c12.4,8.5,27.6-0.5,40.4,7.6c-19,4.4-38.3,5.4-57.2,1.3c-6.1-1.3,2.6-10.6-1-16
		C430.5,358.5,435.6,363.1,440.3,368.7z"/>
	<path class="st146" d="M497.5,354.5c-8.8,2.8,3,10.8-3.6,14.2c-3.6,0-7.1,0-10.7,0c-6-5.9-11.9-3.8-17.9,0
		c-6-0.8-12.8,2.3-17.9-3.6c-2.3-4.1-2.5-8.2,0.3-12.2c1.5-1.2,3.1-2,4.9-2.5c12.4-2,24.9-1.7,37.4-0.5
		C493.1,350.6,495.7,351.8,497.5,354.5z"/>
	<path class="st147" d="M422.4,440.2c-6.2,3.8-3,17.1-10.2,15.8c-8.3-1.5-17.6-1.7-25.5-8.1c-8.2-6.6-7.8-13.9-6.5-21.9
		c1.5-9.5,8.6-11.6,17.1-11c0,0,0.4,0.7,0.4,0.7c0.3,1.2,0.2,2.3-0.2,3.4c-2.6,6.3-13.3,11.8-4,19.3c9,7.3,16.2,1.2,22-6.4
		c1.4-1.9,3.2-3.4,5.8-3.3C426.1,432,425.1,436,422.4,440.2z"/>
	<path class="st141" d="M447.2,354.6c2.6,3.4,2.3,7,0.2,10.5c-2.9,0.1-5.6,0.8-7.1,3.6c-6-2.4-11.9-4.8-17.9-7.2
		c-2.5-6-6.6-11.9,0-17.9C433.3,341.3,439.6,349.3,447.2,354.6z"/>
	<path class="st148" d="M447.2,354.6c-10.8,2.1-16.3-7.9-24.8-11c-1.2-4.8-2.4-9.5-3.5-14.3c4.8-2,9.6-6.1,14.5-0.2
		c0.1,0.8,0.1,1.5,0.2,2.3c0.5,10.1,14.1,12.2,14.1,22.7L447.2,354.6z"/>
	<path class="st149" d="M261.5,483.1c-2.4,2.4-4.7,4.8-7.1,7.2c-4.9,1.1-5.7-2.5-6.6-5.9c1.3-7.8-2.7-17.2,6.6-22.8
		c3.6-2.4,7.1-4.8,10.7-7.1c0,3.6,0,7.1,0.1,10.7C259.3,470.3,262.3,477,261.5,483.1z"/>
	<path class="st150" d="M558.3,486.7c-1.1-4.9-2.2-9.9-3.2-14.3c6.2-3.7,4.9,7.4,10.4,3.6c2.6,2.4,5.3,4.7,7.9,7.1
		c0.8,1.2,1.6,2.5,2.4,3.7c-1.1,0-2.1,0-3.2,0.1C567.7,496.6,563,496.2,558.3,486.7z"/>
	<path class="st141" d="M465.3,368.7c11-10.2,15.1-10.2,17.9,0C477.2,368.7,471.3,368.7,465.3,368.7z"/>
	<path class="st151" d="M422.4,440.2c-0.1-3.8,0.4-7.7-2.6-10.8c-2.8-1.8-3.1-4.2-1.4-7c1.4-0.1,2.7-0.1,4.1-0.2
		C428.9,428.3,433.5,434.2,422.4,440.2z"/>
	<path class="st148" d="M447.4,315c-6,6.9-11.9-4.1-17.9,0C435.5,309.3,441.5,304.3,447.4,315z"/>
	<path class="st152" d="M529.7,307.8c0.8,2.1,2.6,4.4,2.2,6.2c-0.9,3.8-3.2,1.3-4.8,0.2c-3.6-2.6-8.2-4.4-8.1-10
		C522.9,304.4,527,303.8,529.7,307.8z"/>
	<path class="st150" d="M543.9,468.8c0.2-2.2,0.4-4.4,0.6-6.6c2.4,6,5.1,11.9-0.6,17.3C544,476,544,472.4,543.9,468.8z"/>
	<path class="st144" d="M388.8,395c-2.4,0.7-4.1,1.8-5.1,1.4c-1.2-0.5-1.7-2.4-2.6-3.6c1-0.5,2.2-1.6,2.9-1.4
		C385.4,392,386.6,393.3,388.8,395z"/>
	<path class="st148" d="M429.5,315c-2,4.7-5.6,7.1-10.7,7.2C419.2,315.1,424.3,314.9,429.5,315z"/>
	<path class="st98" d="M240,400.9c0.1-2.9,0.7-5.5,3.5-7.1c0,8.1,0,16.1,0,24.2c-1.2,0-2.3,0.1-3.5,0.1
		C240,412.3,240,406.6,240,400.9z"/>
	<path class="st153" d="M511.8,218.4c-0.5,5.7-4.5,9.9-9.3,8.1c-9.1-3.3-0.3-10.1-1.5-15.3C506.3,211.2,511.4,211.3,511.8,218.4z"/>
	<path class="st150" d="M558.3,450.9c-13.9-12.2-14.9-21.3-3.6-32.2C555.9,429.5,557.1,440.2,558.3,450.9z"/>
	<path class="st154" d="M250.8,483.1c0.1,2.9,0.8,5.6,3.6,7.2c1.7,18.5-8.8,33.6-14.3,50.1c-4.8,6-4,16.3-14.2,17.9
		c-4.6-2.6-3.1-11.3-10.8-10.8c-1.6-6.2,2.6-8.6,7.2-10.7c2.4-9.5,4.8-19.1,7.2-28.6c1.5-8.3-3.9-24.5,15.5-12.8
		c-2.8-7.9-5.5-15.4-8.1-22.8c3.5-2.4,7-4.9,10.5-7.3C251,470.7,247.2,477.6,250.8,483.1z"/>
	<path class="st155" d="M250.8,483.1c-10.4-4.1-3.9-11.6-3.6-17.9c0-1.2,0-2.4,0-3.6c2.4,0,4.8,0,7.1,0
		C248.5,468.1,256.6,476.7,250.8,483.1z"/>
	<path class="st125" d="M497.5,572.6c7.4-8,15.8-8.9,25-3.6C515,575.7,505.8,571.2,497.5,572.6z"/>
	<path class="st60" d="M222.1,536.8c-2.4,3.6-4.8,7.1-7.2,10.7c-3.6,1.6-4.4,7.6-12,6.1C210,547.5,209.7,535.9,222.1,536.8z"/>
	<path class="st130" d="M601.4,536.4c3.4,2.7,6.7,5.4,10,8c0.3,2.2,0.6,4.3,0.9,6.5C606,548.1,601.3,544,601.4,536.4z"/>
	<path class="st116" d="M540.4,551.1c5.8-3,10.2-0.2,14.3,3.6C549.7,554.2,544.2,556.2,540.4,551.1z"/>
	<path class="st148" d="M497.5,354.5c-2.3,0-4.5,0-6.8,0c-2.7-4,0.9-5.7,2.7-8.2c3.8-5.1-2.1,0.1-1.8-1.5c-11,0.5-21.8,0.2-32.7,0.3
		c-10.7-1.7-22.2-2.1-26.1-15.4c0,0,0.4-0.5,0.4-0.5c3.5,0.5,7.1,1.6,10.5,1.2c4.7-0.5,11.9-11,11.9,4.2c0,2.5,7.9,3.1,11.3,1.3
		c6-3.2,10.8-5.4,17-0.2c2.6,2.2,6.5-0.2,9.9-1.4c6-2.1-8.7-14.6,5.1-10.3c5.6,1.8,14.8,4.9,14.8,13.3c0,8.7-4.6,15.8-14.5,17.2
		C498.7,354.3,498.1,354.4,497.5,354.5z"/>
	<path class="st156" d="M515.1,315.4c-0.3,3.2-1.4,6-5.1,4.8c-1.7-0.5-3.7-3.1-3.8-4.8c-0.3-3.6,3-4.6,5.8-4.8
		C515.4,310.3,514.9,313.3,515.1,315.4z"/>
	<path class="st157" d="M418.3,422.5c0.5,2.3,1,4.6,1.4,7c-0.3,11.8-7.7,16.9-18.2,17.4c-7.3,0.4-14.7-2.1-17.4-9.6
		c-4.4-12.2,6.2-16.1,13.5-21.6C405.8,414,411.1,421.2,418.3,422.5z"/>
	<path class="st158" d="M432.9,329.7c7.2,6.3,15.7,9.5,25.2,10.4c13.1,2.8,26.3,3,39.4-0.1c3.6,0.2,8.2,0.2,3.8,5.4
		c-3,3.5-7,6.1-10.6,9.1c-14.4-0.1-28.8-0.2-43.2-0.4c-5.6-4.8-11.4-9.4-16.8-14.3C426,335.5,427.2,332,432.9,329.7z"/>
	<path class="st159" d="M497.5,339.9c-13.1,6-26.2,5.9-39.4,0.1C471.3,340,484.4,340,497.5,339.9z"/>
</g>
</svg>
